<?xml version="1.0" standalone="no"?>
<!DOCTYPE svg PUBLIC "-//W3C//DTD SVG 20010904//EN"
 "http://www.w3.org/TR/2001/REC-SVG-20010904/DTD/svg10.dtd">
<svg version="1.0" xmlns="http://www.w3.org/2000/svg"
 width="435.000000pt" height="116.000000pt" viewBox="0 0 435.000000 116.000000"
 preserveAspectRatio="xMidYMid meet">
<metadata>
Created by potrace 1.16, written by Peter Selinger 2001-2019
</metadata>
<g transform="translate(0.000000,116.000000) scale(0.100000,-0.100000)"
fill="#000000" stroke="none">
<path d="M318 902 c-237 -86 -303 -387 -125 -566 55 -55 104 -80 183 -96 109
-21 228 17 309 100 l36 37 -56 48 -56 48 -31 -32 c-45 -45 -92 -63 -156 -58
-144 11 -224 171 -149 299 65 111 200 130 298 41 l39 -35 52 43 c29 24 55 45
58 47 13 10 -105 102 -155 121 -70 26 -180 27 -247 3z"/>
<path d="M860 580 l0 -340 75 0 75 0 0 135 0 135 135 0 135 0 0 -135 0 -135
80 0 80 0 0 340 0 341 -77 -3 -78 -3 -3 -132 -3 -133 -134 0 -135 0 0 135 0
135 -75 0 -75 0 0 -340z"/>
<path d="M1715 590 c-88 -182 -161 -334 -163 -340 -2 -6 27 -10 75 -10 l79 0
25 53 24 52 122 3 123 3 27 -56 27 -55 78 0 c43 0 78 2 78 4 0 6 -329 676
-332 676 -2 -1 -75 -149 -163 -330z"/>
<path d="M2320 580 c0 -187 2 -340 5 -340 4 0 99 79 213 176 l207 175 3 -175
2 -176 75 0 75 0 0 340 0 341 -77 -65 c-43 -35 -136 -114 -208 -175 -71 -61
-133 -111 -137 -111 -5 0 -8 79 -8 175 l0 175 -75 0 -75 0 0 -340z"/>
<path d="M3283 902 c-193 -77 -276 -290 -185 -475 62 -125 171 -191 314 -191
65 1 86 5 140 32 35 17 80 48 101 70 l38 39 -56 47 -55 48 -39 -35 c-132 -119
-326 -34 -326 143 0 70 28 125 82 164 76 53 171 45 244 -21 l39 -35 57 48 56
48 -51 47 c-69 63 -139 89 -240 88 -48 0 -93 -6 -119 -17z"/>
<path d="M3830 580 l0 -340 210 0 210 0 0 75 0 75 -135 0 -135 0 0 60 0 60
105 0 105 0 0 70 0 70 -105 0 -105 0 0 60 0 60 135 0 135 0 0 75 0 75 -210 0
-210 0 0 -340z"/>
</g>
</svg>
