<svg version="1.1" id="Layer_1" xmlns="http://www.w3.org/2000/svg" xmlns:xlink="http://www.w3.org/1999/xlink" x="0px" y="0px"
	 width="100%" viewBox="0 0 216 101" enable-background="new 0 0 216 101" xml:space="preserve">
<path fill="#E3E3E3" opacity="1.000000" stroke="none" 
	d="
M137.000000,102.000000 
	C91.333344,102.000000 46.166695,102.000000 1.000030,102.000000 
	C1.000020,68.333359 1.000020,34.666714 1.000010,1.000053 
	C72.999954,1.000035 144.999908,1.000035 216.999908,1.000018 
	C216.999939,34.666611 216.999939,68.333221 216.999969,101.999916 
	C190.500000,102.000000 164.000000,102.000000 137.000000,102.000000 
M113.959518,40.334965 
	C107.461166,37.031841 101.027802,38.114666 96.999519,43.189560 
	C92.491241,48.869175 92.743530,58.038071 97.557007,63.449635 
	C102.179550,68.646545 108.460487,69.239136 115.439804,65.136833 
	C115.405571,65.626953 115.371330,66.117073 115.337097,66.607201 
	C118.660843,66.828522 121.984589,67.049843 125.392395,67.276764 
	C125.392395,57.299702 125.392395,48.252228 125.392395,37.947895 
	C121.339767,39.017960 117.934395,39.917126 113.959518,40.334965 
M145.083511,58.170094 
	C149.512283,68.169113 156.902496,70.532326 166.067581,65.084778 
	C168.785004,68.860023 172.449112,66.563583 175.811646,67.100479 
	C175.811646,57.508030 175.811646,48.301445 175.811646,38.709167 
	C172.395782,39.804581 168.356033,36.493317 166.251343,41.297676 
	C158.890442,37.046093 152.227081,37.516647 147.868240,42.803436 
	C144.337082,47.086369 143.667389,52.071678 145.083511,58.170094 
M198.986298,62.399311 
	C199.054718,63.853607 199.123154,65.307907 199.194000,66.813522 
	C202.352722,66.813522 205.210617,66.813522 208.326691,66.813522 
	C208.326691,61.303024 208.502380,56.154263 208.291779,51.021351 
	C207.780777,38.566704 200.861160,34.921654 190.822891,40.977898 
	C187.866379,37.349178 184.201111,39.280418 180.799347,39.017288 
	C180.799347,48.477131 180.799347,57.671242 180.799347,66.917938 
	C183.957275,66.917938 186.715942,66.917938 189.971298,66.917938 
	C189.971298,61.547710 189.948456,56.432270 189.980011,51.317165 
	C189.998398,48.333733 191.083420,45.490429 194.402542,46.150230 
	C196.150757,46.497753 198.292816,49.083065 198.706299,50.993580 
	C199.429688,54.335968 198.957520,57.937103 198.986298,62.399311 
M63.629627,33.086700 
	C58.667023,27.699581 52.201427,28.585161 45.906380,28.900331 
	C41.552917,29.118298 37.436653,30.332012 35.648743,34.694004 
	C33.853527,39.073814 36.208153,42.825478 38.879360,46.095676 
	C43.293659,51.499844 50.848454,52.828239 56.951324,49.531734 
	C62.966484,46.282612 65.928886,39.678806 63.629627,33.086700 
M139.090225,51.388447 
	C139.090225,43.639946 139.090225,35.891445 139.090225,28.218086 
	C135.685486,28.218086 133.075073,28.218086 129.947098,28.218086 
	C129.947098,38.039917 129.863388,47.648304 129.972473,57.254505 
	C130.067093,65.587479 134.771957,69.110184 143.616455,67.085373 
	C143.379410,65.110947 143.562927,61.461708 142.817841,61.261074 
	C137.368744,59.793762 139.530396,55.598286 139.090225,51.388447 
M45.495678,67.290794 
	C52.775169,68.877266 60.320210,66.622856 63.326420,61.661110 
	C64.069427,60.434784 64.364471,58.461491 63.906048,57.172878 
	C63.657185,56.473335 61.209721,55.921066 60.060680,56.281128 
	C53.310474,58.396389 46.677811,58.357216 39.944534,56.240124 
	C38.875385,55.903957 36.755661,56.237141 36.398102,56.924683 
	C35.836426,58.004723 35.792603,60.264004 36.527756,60.942825 
	C39.020004,63.244122 41.950493,65.070801 45.495678,67.290794 
M29.206308,32.509693 
	C27.552114,28.676071 24.504503,26.882866 20.502241,27.443731 
	C16.465525,28.009424 13.889843,30.809549 13.408690,34.741302 
	C13.183354,36.582645 14.030413,39.158802 15.341380,40.392490 
	C16.379305,41.369228 18.868484,40.923038 20.708372,40.883430 
	C21.804779,40.859825 22.880692,40.242867 23.984983,40.165203 
	C28.879200,39.820992 30.041862,38.403378 29.206308,32.509693 
M82.993019,41.471542 
	C87.516258,39.668144 87.697586,36.295933 86.064827,32.472019 
	C84.365555,28.492325 81.408020,26.491215 76.937737,27.519646 
	C72.817680,28.467505 69.464920,32.188599 70.339256,35.600857 
	C70.783104,37.333050 72.593025,39.254078 74.270615,40.003437 
	C76.712402,41.094154 79.592163,41.204369 82.993019,41.471542 
z"/>
<path fill="#191919" opacity="1.000000" stroke="none" 
	d="
M114.244270,40.575626 
	C117.934395,39.917126 121.339767,39.017960 125.392395,37.947895 
	C125.392395,48.252228 125.392395,57.299702 125.392395,67.276764 
	C121.984589,67.049843 118.660843,66.828522 115.337097,66.607201 
	C115.371330,66.117073 115.405571,65.626953 115.439804,65.136833 
	C108.460487,69.239136 102.179550,68.646545 97.557007,63.449635 
	C92.743530,58.038071 92.491241,48.869175 96.999519,43.189560 
	C101.027802,38.114666 107.461166,37.031841 114.244270,40.575626 
M107.971275,46.050716 
	C106.818085,46.916096 105.318932,47.555325 104.577370,48.689777 
	C102.455856,51.935253 102.463730,55.741070 105.274567,58.165676 
	C106.987625,59.643345 110.624687,60.298073 112.774521,59.544666 
	C116.343872,58.293793 116.712982,54.551296 115.978630,51.106453 
	C115.170502,47.315510 112.659523,45.594109 107.971275,46.050716 
z"/>
<path fill="#161616" opacity="1.000000" stroke="none" 
	d="
M145.019501,57.776943 
	C143.667389,52.071678 144.337082,47.086369 147.868240,42.803436 
	C152.227081,37.516647 158.890442,37.046093 166.251343,41.297676 
	C168.356033,36.493317 172.395782,39.804581 175.811646,38.709167 
	C175.811646,48.301445 175.811646,57.508030 175.811646,67.100479 
	C172.449112,66.563583 168.785004,68.860023 166.067581,65.084778 
	C156.902496,70.532326 149.512283,68.169113 145.019501,57.776943 
M153.979889,51.797935 
	C153.801697,55.712330 154.532349,59.202923 159.033844,60.141674 
	C162.814728,60.930149 165.444458,59.292694 166.616913,55.554119 
	C167.762039,51.902737 166.031967,47.337116 162.850327,46.331573 
	C158.504440,44.958076 155.440674,46.506947 153.979889,51.797935 
z"/>
<path fill="#181818" opacity="1.000000" stroke="none" 
	d="
M198.986298,61.914566 
	C198.957520,57.937103 199.429688,54.335968 198.706299,50.993580 
	C198.292816,49.083065 196.150757,46.497753 194.402542,46.150230 
	C191.083420,45.490429 189.998398,48.333733 189.980011,51.317165 
	C189.948456,56.432270 189.971298,61.547710 189.971298,66.917938 
	C186.715942,66.917938 183.957275,66.917938 180.799347,66.917938 
	C180.799347,57.671242 180.799347,48.477131 180.799347,39.017288 
	C184.201111,39.280418 187.866379,37.349178 190.822891,40.977898 
	C200.861160,34.921654 207.780777,38.566704 208.291779,51.021351 
	C208.502380,56.154263 208.326691,61.303024 208.326691,66.813522 
	C205.210617,66.813522 202.352722,66.813522 199.194000,66.813522 
	C199.123154,65.307907 199.054718,63.853607 198.986298,61.914566 
z"/>
<path fill="#141414" opacity="1.000000" stroke="none" 
	d="
M63.829247,33.420567 
	C65.928886,39.678806 62.966484,46.282612 56.951324,49.531734 
	C50.848454,52.828239 43.293659,51.499844 38.879360,46.095676 
	C36.208153,42.825478 33.853527,39.073814 35.648743,34.694004 
	C37.436653,30.332012 41.552917,29.118298 45.906380,28.900331 
	C52.201427,28.585161 58.667023,27.699581 63.829247,33.420567 
z"/>
<path fill="#141414" opacity="1.000000" stroke="none" 
	d="
M139.090332,51.869934 
	C139.530396,55.598286 137.368744,59.793762 142.817841,61.261074 
	C143.562927,61.461708 143.379410,65.110947 143.616455,67.085373 
	C134.771957,69.110184 130.067093,65.587479 129.972473,57.254505 
	C129.863388,47.648304 129.947098,38.039917 129.947098,28.218086 
	C133.075073,28.218086 135.685486,28.218086 139.090225,28.218086 
	C139.090225,35.891445 139.090225,43.639946 139.090332,51.869934 
z"/>
<path fill="#181818" opacity="1.000000" stroke="none" 
	d="
M45.104614,67.184799 
	C41.950493,65.070801 39.020004,63.244122 36.527756,60.942825 
	C35.792603,60.264004 35.836426,58.004723 36.398102,56.924683 
	C36.755661,56.237141 38.875385,55.903957 39.944534,56.240124 
	C46.677811,58.357216 53.310474,58.396389 60.060680,56.281128 
	C61.209721,55.921066 63.657185,56.473335 63.906048,57.172878 
	C64.364471,58.461491 64.069427,60.434784 63.326420,61.661110 
	C60.320210,66.622856 52.775169,68.877266 45.104614,67.184799 
z"/>
<path fill="#191919" opacity="1.000000" stroke="none" 
	d="
M29.364178,32.854507 
	C30.041862,38.403378 28.879200,39.820992 23.984983,40.165203 
	C22.880692,40.242867 21.804779,40.859825 20.708372,40.883430 
	C18.868484,40.923038 16.379305,41.369228 15.341380,40.392490 
	C14.030413,39.158802 13.183354,36.582645 13.408690,34.741302 
	C13.889843,30.809549 16.465525,28.009424 20.502241,27.443731 
	C24.504503,26.882866 27.552114,28.676071 29.364178,32.854507 
z"/>
<path fill="#191919" opacity="1.000000" stroke="none" 
	d="
M82.639099,41.602097 
	C79.592163,41.204369 76.712402,41.094154 74.270615,40.003437 
	C72.593025,39.254078 70.783104,37.333050 70.339256,35.600857 
	C69.464920,32.188599 72.817680,28.467505 76.937737,27.519646 
	C81.408020,26.491215 84.365555,28.492325 86.064827,32.472019 
	C87.697586,36.295933 87.516258,39.668144 82.639099,41.602097 
z"/>
<path fill="#DEDEDE" opacity="1.000000" stroke="none" 
	d="
M108.370575,46.005901 
	C112.659523,45.594109 115.170502,47.315510 115.978630,51.106453 
	C116.712982,54.551296 116.343872,58.293793 112.774521,59.544666 
	C110.624687,60.298073 106.987625,59.643345 105.274567,58.165676 
	C102.463730,55.741070 102.455856,51.935253 104.577370,48.689777 
	C105.318932,47.555325 106.818085,46.916096 108.370575,46.005901 
z"/>
<path fill="#DEDEDE" opacity="1.000000" stroke="none" 
	d="
M154.024719,51.395081 
	C155.440674,46.506947 158.504440,44.958076 162.850327,46.331573 
	C166.031967,47.337116 167.762039,51.902737 166.616913,55.554119 
	C165.444458,59.292694 162.814728,60.930149 159.033844,60.141674 
	C154.532349,59.202923 153.801697,55.712330 154.024719,51.395081 
z"/>
</svg>