<?xml version="1.0" standalone="no"?>
<!DOCTYPE svg PUBLIC "-//W3C//DTD SVG 20010904//EN"
 "http://www.w3.org/TR/2001/REC-SVG-20010904/DTD/svg10.dtd">
<svg version="1.0" xmlns="http://www.w3.org/2000/svg"
 width="200.000000pt" height="200.000000pt" viewBox="0 0 200.000000 200.000000"
 preserveAspectRatio="xMidYMid meet">
<g transform="translate(0.000000,200.000000) scale(0.100000,-0.100000)"
fill="#000000" stroke="none">
<path d="M342 1100 c-97 -60 -64 -205 50 -217 32 -3 52 1 76 16 38 24 39 32
11 49 -18 11 -24 11 -38 -2 -22 -20 -50 -20 -79 0 -31 21 -31 87 0 108 28 20
62 20 82 1 13 -13 19 -13 36 -3 27 17 25 25 -12 48 -42 25 -84 25 -126 0z"/>
<path d="M550 1000 l0 -120 25 0 c23 0 25 3 25 48 l0 48 48 -2 47 -2 -2 -46
c-2 -45 -1 -46 27 -46 l30 0 0 120 0 120 -30 0 c-28 0 -29 -1 -27 -46 l2 -46
-47 -2 -48 -2 0 48 c0 45 -2 48 -25 48 l-25 0 0 -120z m50 0 c0 -5 -4 -10 -10
-10 -5 0 -10 5 -10 10 0 6 5 10 10 10 6 0 10 -4 10 -10z"/>
<path d="M890 1111 c0 -5 -24 -59 -54 -120 l-54 -111 29 0 c18 0 32 7 39 20 8
15 21 20 54 20 35 0 45 -4 49 -20 4 -14 14 -20 34 -20 l29 0 -53 111 c-29 60
-53 114 -53 120 0 5 -4 9 -10 9 -5 0 -10 -4 -10 -9z m20 -110 c0 -5 3 -16 6
-25 4 -12 0 -16 -16 -16 -16 0 -20 4 -16 16 3 9 6 20 6 25 0 5 5 9 10 9 6 0
10 -4 10 -9z m45 -61 c10 -11 16 -20 13 -20 -3 0 -13 9 -23 20 -10 11 -16 20
-13 20 3 0 13 -9 23 -20z"/>
<path d="M1050 999 l0 -121 51 44 c28 23 62 51 75 61 l24 19 0 -61 c0 -58 1
-61 24 -61 25 0 25 0 28 118 2 64 3 118 2 119 0 2 -35 -26 -76 -62 l-76 -64 6
64 5 65 -32 0 -31 0 0 -121z m170 31 c0 -13 -5 -18 -15 -14 -12 5 -13 10 -4
20 15 19 19 18 19 -6z m-106 -62 c-3 -4 -11 -5 -19 -1 -21 7 -19 12 4 10 11 0
18 -5 15 -9z"/>
<path d="M1368 1104 c-78 -42 -75 -169 4 -210 40 -21 103 -13 132 15 19 19 19
22 4 37 -15 15 -18 15 -39 0 -33 -22 -62 -20 -87 7 -28 30 -28 68 1 95 28 26
54 28 85 6 18 -12 26 -13 37 -4 22 18 18 28 -17 50 -39 23 -82 25 -120 4z"/>
<path d="M1570 1000 l0 -120 75 0 75 0 0 29 c0 28 -1 28 -50 23 -48 -4 -50 -4
-50 21 0 24 2 25 40 20 39 -6 40 -5 40 25 0 29 -1 30 -40 25 -38 -5 -40 -4
-40 22 0 27 0 28 50 21 l50 -7 0 31 0 30 -75 0 -75 0 0 -120z"/>
<path d="M384 1009 c-3 -6 -2 -15 3 -20 5 -5 9 -1 9 11 0 23 -2 24 -12 9z"/>
</g>
</svg>
