<?xml version="1.0" standalone="no"?>
<!DOCTYPE svg PUBLIC "-//W3C//DTD SVG 20010904//EN"
 "http://www.w3.org/TR/2001/REC-SVG-20010904/DTD/svg10.dtd">
<svg version="1.0" xmlns="http://www.w3.org/2000/svg"
 width="273.000000pt" height="285.000000pt" viewBox="0 0 273.000000 285.000000"
 preserveAspectRatio="xMidYMid meet">
<g transform="translate(0.000000,285.000000) scale(0.100000,-0.100000)"
fill="#000000" stroke="none">
<path d="M966 1721 c-4 -5 -2 -13 4 -16 8 -5 8 -11 1 -19 -8 -9 -6 -12 9 -11
27 2 36 13 16 21 -9 3 -14 10 -11 14 3 5 1 11 -4 14 -5 4 -12 2 -15 -3z"/>
<path d="M1023 1715 c0 -8 4 -12 9 -9 5 3 6 10 3 15 -9 13 -12 11 -12 -6z"/>
<path d="M1157 1720 c-67 -12 -130 -52 -166 -106 -37 -56 -45 -92 -39 -183 7
-127 86 -211 219 -232 39 -6 267 -9 574 -7 l510 3 51 27 c96 50 137 122 137
238 1 121 -45 194 -153 244 -44 20 -60 21 -565 23 -286 0 -541 -3 -568 -7z
m1133 -60 c24 -14 58 -45 75 -68 27 -40 30 -51 30 -125 0 -131 -52 -202 -166
-226 -32 -7 -230 -11 -543 -11 -558 0 -572 2 -636 69 -65 68 -79 179 -34 269
14 29 39 61 56 73 66 47 80 48 643 46 l530 -2 45 -25z"/>
<path d="M1424 1641 c4 -5 0 -11 -6 -14 -7 -3 -3 -4 9 -4 17 1 19 4 11 14 -12
15 -22 18 -14 4z"/>
<path d="M1679 1633 c-13 -16 -12 -17 4 -4 9 7 17 15 17 17 0 8 -8 3 -21 -13z"/>
<path d="M1740 1641 c0 -6 4 -13 10 -16 6 -3 7 1 4 9 -7 18 -14 21 -14 7z"/>
<path d="M1957 1643 c-4 -3 -7 -11 -7 -17 0 -6 5 -5 12 2 6 6 9 14 7 17 -3 3
-9 2 -12 -2z"/>
<path d="M2185 1637 c-13 -10 -15 -16 -6 -21 7 -5 15 -5 18 -2 4 3 0 6 -7 6
-9 0 -7 5 6 15 10 8 16 15 13 15 -3 0 -13 -6 -24 -13z"/>
<path d="M1505 1629 c-11 -16 -1 -19 13 -3 7 8 8 14 3 14 -5 0 -13 -5 -16 -11z"/>
<path d="M1806 1623 c-6 -14 -5 -15 5 -6 7 7 10 15 7 18 -3 3 -9 -2 -12 -12z"/>
<path d="M1135 1619 c-4 -6 -5 -12 -2 -15 2 -3 7 2 10 11 7 17 1 20 -8 4z"/>
<path d="M1396 1607 c3 -10 9 -15 12 -12 3 3 0 11 -7 18 -10 9 -11 8 -5 -6z"/>
<path d="M2246 1607 c3 -10 9 -15 12 -12 3 3 0 11 -7 18 -10 9 -11 8 -5 -6z"/>
<path d="M1822 1601 c-11 -7 -11 -9 0 -14 9 -3 15 1 15 9 0 8 -1 14 -1 14 -1
0 -7 -4 -14 -9z"/>
<path d="M1088 1593 c6 -2 9 -10 6 -15 -4 -7 -2 -8 5 -4 13 9 5 26 -12 25 -9
0 -8 -2 1 -6z"/>
<path d="M1140 1581 c0 -7 -4 -10 -8 -7 -5 3 -9 -2 -9 -10 0 -13 2 -13 16 0 8
9 12 19 8 22 -4 4 -7 2 -7 -5z"/>
<path d="M1202 1580 c-32 -13 -48 -53 -34 -85 13 -27 32 -38 100 -55 39 -10
43 -14 40 -38 -3 -26 -5 -27 -75 -30 -65 -3 -73 -5 -73 -22 0 -18 7 -20 68
-20 79 0 113 15 127 53 16 48 -10 79 -80 98 -52 14 -60 19 -60 40 0 22 4 24
65 29 52 4 66 9 68 23 2 15 -5 17 -60 16 -35 0 -73 -4 -86 -9z"/>
<path d="M1430 1460 l0 -130 25 0 25 0 0 130 0 130 -25 0 -25 0 0 -130z"/>
<path d="M1570 1460 l0 -130 85 0 c78 0 85 2 85 20 0 18 -7 20 -66 20 l-65 0
3 110 c3 108 3 110 -19 110 -23 0 -23 -2 -23 -130z"/>
<path d="M1770 1463 c46 -122 49 -128 78 -131 27 -3 31 1 42 33 7 20 29 79 50
131 l38 94 -27 0 c-25 0 -29 -7 -61 -105 -19 -57 -37 -105 -40 -105 -3 0 -21
48 -40 105 -32 98 -36 105 -61 105 l-27 0 48 -127z"/>
<path d="M2025 1461 c0 -129 0 -131 23 -131 20 0 22 5 22 58 l0 57 56 -57 c45
-47 62 -58 87 -58 l32 0 -57 56 c-32 31 -58 56 -58 57 0 1 15 3 33 4 59 4 86
67 49 114 -16 19 -31 23 -103 27 l-84 4 0 -131z m139 83 c9 -3 16 -16 16 -29
0 -27 -17 -35 -71 -35 -38 0 -39 1 -39 35 0 34 1 35 39 35 22 0 46 -3 55 -6z"/>
<path d="M1136 1432 c-2 -4 -1 -14 4 -22 7 -11 9 -9 7 8 -1 24 -3 26 -11 14z"/>
<path d="M1096 1321 c-3 -5 2 -15 12 -22 15 -12 16 -12 5 2 -7 9 -10 19 -6 22
3 4 4 7 0 7 -3 0 -8 -4 -11 -9z"/>
<path d="M2366 1712 c-3 -5 1 -9 9 -9 8 0 12 4 9 9 -3 4 -7 8 -9 8 -2 0 -6 -4
-9 -8z"/>
<path d="M2456 1638 c3 -5 10 -6 15 -3 13 9 11 12 -6 12 -8 0 -12 -4 -9 -9z"/>
<path d="M0 1625 c0 -8 6 -12 13 -9 8 3 19 -2 26 -9 9 -12 8 -16 -5 -21 -9 -3
-20 -4 -25 0 -5 3 -9 -2 -9 -10 0 -12 10 -16 38 -16 37 0 37 0 37 40 0 40 0
40 -37 40 -27 0 -38 -4 -38 -15z"/>
<path d="M0 1479 c0 -11 4 -17 10 -14 5 3 10 2 10 -4 0 -5 -4 -13 -10 -16 -18
-11 -10 -25 15 -25 23 0 25 4 25 40 0 36 -2 40 -25 40 -19 0 -25 -5 -25 -21z"/>
<path d="M0 1345 c0 -14 11 -19 37 -16 8 1 10 -5 7 -14 -3 -8 -15 -15 -25 -15
-10 0 -19 -4 -19 -10 0 -5 17 -10 38 -10 36 0 37 1 37 40 1 40 1 40 -37 40
-27 0 -38 -4 -38 -15z"/>
<path d="M966 1277 c3 -10 9 -15 12 -12 3 3 0 11 -7 18 -10 9 -11 8 -5 -6z"/>
<path d="M2416 1258 c3 -4 11 -5 19 -1 21 7 19 12 -4 10 -11 0 -18 -5 -15 -9z"/>
<path d="M2383 1215 c0 -8 4 -12 9 -9 5 3 6 10 3 15 -9 13 -12 11 -12 -6z"/>
</g>
</svg>
