<?xml version="1.0" standalone="no"?>
<!DOCTYPE svg PUBLIC "-//W3C//DTD SVG 20010904//EN"
 "http://www.w3.org/TR/2001/REC-SVG-20010904/DTD/svg10.dtd">
<svg version="1.0" xmlns="http://www.w3.org/2000/svg"
 width="163.000000pt" height="83.000000pt" viewBox="0 0 163.000000 83.000000"
 preserveAspectRatio="xMidYMid meet">
<g transform="translate(0.000000,83.000000) scale(0.100000,-0.100000)"
fill="#000000" stroke="none">
<path d="M266 670 c-69 -12 -135 -56 -171 -114 -28 -46 -30 -56 -30 -146 0
-90 2 -100 30 -146 39 -63 102 -102 186 -115 39 -6 267 -9 574 -7 562 3 542 1
619 68 54 48 80 112 80 200 0 121 -46 194 -154 244 -44 20 -60 21 -565 23
-286 0 -542 -3 -569 -7z m1134 -60 c24 -14 58 -45 75 -68 27 -40 30 -51 30
-125 0 -98 -20 -146 -77 -188 -66 -47 -104 -50 -659 -47 -511 3 -514 3 -556
25 -105 56 -144 196 -88 310 32 64 52 82 117 104 49 17 91 19 583 16 l530 -2
45 -25z"/>
<path d="M289 588 c13 -17 8 -23 -13 -19 -5 1 -4 -5 4 -13 7 -9 15 -16 18 -16
3 0 2 3 -1 7 -4 3 1 16 10 27 10 12 14 18 9 14 -5 -4 -16 -2 -25 5 -14 11 -14
10 -2 -5z"/>
<path d="M523 577 c-4 -6 -1 -7 7 -2 10 6 12 4 7 -8 -9 -23 0 -22 12 1 8 14 6
19 -5 19 -8 0 -18 -5 -21 -10z"/>
<path d="M1016 572 c-3 -5 1 -9 9 -9 8 0 12 4 9 9 -3 4 -7 8 -9 8 -2 0 -6 -4
-9 -8z"/>
<path d="M209 523 c-13 -16 -12 -17 4 -4 16 13 21 21 13 21 -2 0 -10 -8 -17
-17z"/>
<path d="M320 531 c-14 -4 -32 -19 -40 -34 -22 -40 1 -78 60 -95 65 -19 75
-26 75 -53 0 -23 -4 -24 -72 -27 -65 -3 -73 -5 -73 -22 0 -18 7 -20 74 -20 87
0 126 22 126 70 0 41 -28 68 -90 83 -48 12 -55 16 -55 38 0 22 4 24 65 29 53
4 65 8 66 23 2 14 -7 17 -55 16 -31 -1 -67 -4 -81 -8z"/>
<path d="M540 410 l0 -130 25 0 25 0 0 130 0 130 -25 0 -25 0 0 -130z"/>
<path d="M680 411 l0 -131 85 0 c78 0 85 2 85 20 0 18 -7 20 -66 20 l-65 0 2
108 c2 102 1 107 -20 110 -21 3 -21 0 -21 -127z"/>
<path d="M880 413 c45 -121 49 -128 77 -131 29 -3 30 -1 76 121 26 67 47 126
47 130 0 4 -10 7 -23 7 -20 0 -27 -13 -57 -105 -19 -57 -37 -105 -40 -105 -3
0 -16 33 -29 73 -41 125 -47 137 -74 137 l-25 0 48 -127z"/>
<path d="M1135 410 c0 -128 0 -130 23 -130 20 0 22 5 22 58 l0 57 56 -57 c45
-47 62 -58 87 -58 l32 0 -60 59 c-33 32 -64 56 -69 53 -5 -3 -6 0 -2 7 5 8 12
9 20 2 19 -16 69 2 86 32 18 33 5 76 -30 94 -14 7 -56 13 -95 13 l-70 0 0
-130z m139 84 c9 -3 16 -16 16 -29 0 -27 -17 -35 -71 -35 -38 0 -39 1 -39 35
0 34 1 35 39 35 22 0 46 -3 55 -6z"/>
<path d="M947 499 c7 -7 15 -10 18 -7 3 3 -2 9 -12 12 -14 6 -15 5 -6 -5z"/>
<path d="M440 466 c0 -2 7 -7 16 -10 8 -3 12 -2 9 4 -6 10 -25 14 -25 6z"/>
<path d="M263 395 c0 -8 4 -12 9 -9 5 3 6 10 3 15 -9 13 -12 11 -12 -6z"/>
<path d="M1315 381 c-3 -5 -2 -12 3 -15 5 -3 9 1 9 9 0 17 -3 19 -12 6z"/>
<path d="M186 262 c-3 -5 1 -9 9 -9 8 0 12 4 9 9 -3 4 -7 8 -9 8 -2 0 -6 -4
-9 -8z"/>
<path d="M1499 657 c6 -8 7 -18 3 -22 -4 -5 -1 -5 6 -1 10 6 10 11 1 22 -6 8
-14 14 -16 14 -3 0 0 -6 6 -13z"/>
<path d="M89 648 c-5 -9 -5 -48 -1 -43 6 6 11 45 5 45 -2 0 -4 -1 -4 -2z"/>
<path d="M1506 212 c-2 -4 -1 -14 4 -22 7 -11 9 -9 7 8 -1 24 -3 26 -11 14z"/>
<path d="M1433 125 c0 -8 4 -12 9 -9 5 3 6 10 3 15 -9 13 -12 11 -12 -6z"/>
</g>
</svg>
