<svg width="273" height="285" version="1.1" xmlns="http://www.w3.org/2000/svg" desc="Created with imagetracer.js version 1.2.6" ><path fill="rgb(44,44,44)" stroke="rgb(44,44,44)" stroke-width="1" opacity="1" d="M 24.5 119 Q 30 118 31 121.5 L 35 134 Q 37.7 135.1 37 132.5 L 39 123.5 L 42.5 119 Q 49 118 50 122.5 L 57 148.5 L 58 158 L 48 158 L 48 154.5 L 45 140.5 L 42.5 137 Q 39.2 135.9 40 138.5 L 39 139.5 L 39 150.5 L 40 151.5 L 40 158 L 30 158 L 30 153.5 L 28 143.5 L 24.5 137 L 22 138.5 Q 19.3 142.3 21 150.5 L 22 151.5 L 22 158 L 12 158 L 12 153.5 L 10 146.5 L 10 141.5 L 11.5 140 Q 18.3 141.7 20 138.5 L 21 124.5 L 24.5 119 Z " /><path fill="rgb(44,44,44)" stroke="rgb(44,44,44)" stroke-width="1" opacity="1" d="M 152 120 L 160 120 L 160 126 L 168 126 L 168 130.5 L 166.5 132 L 160 132 L 160 151.5 L 161.5 152 L 168 153 L 168 158 L 157.5 158 L 153 154.5 L 152 152.5 L 152 132 Q 147.4 133.3 146 130.5 L 146 126 L 152 126 L 152 120 Z " /><path fill="rgb(44,44,44)" stroke="rgb(44,44,44)" stroke-width="1" opacity="1" d="M 87.5 125 L 95 128.5 L 96.5 132 L 100.5 127 L 106.5 125 L 114 128.5 L 115 131.5 L 115 158 L 107.5 158 L 107 157.5 L 107 133.5 L 103.5 131 L 98 134.5 L 96 138.5 L 96 158 L 88 158 L 88 132.5 L 86.5 132 L 84.5 131 L 79 134.5 L 77 139.5 L 77 158 L 69.5 158 L 69 157.5 L 69 127.5 Q 70.6 124.5 76 126 L 77.5 132 L 81.5 127 L 87.5 125 Z " /><path fill="rgb(44,44,44)" stroke="rgb(44,44,44)" stroke-width="1" opacity="1" d="M 131.5 125 L 137.5 126 L 143 130.5 L 144 132.5 L 144 153 L 149 154 L 149 158 L 147.5 158 L 142.5 159 L 138 156.5 L 136.5 154 Q 134 159.5 125.5 159 L 119 154.5 L 118 149.5 L 122.5 143 L 136 138 L 135 131 L 128.5 131 L 127 132.5 L 126 137 Q 121.4 138.3 120 135.5 Q 120.1 129.1 124.5 127 L 131.5 125 Z M 134 143 L 126 148 Q 125 153 129 154 Q 135 155 136 151 L 136 144 L 134 143 Z " /><path fill="rgb(44,44,44)" stroke="rgb(44,44,44)" stroke-width="1" opacity="1" d="M 183.5 125 Q 191.3 125.7 195 130.5 Q 198.9 135 198 143 L 177.5 143 Q 176.5 143 177 147.5 L 180.5 153 L 185.5 154 L 191 150.5 L 192 146 L 198 148.5 Q 196.8 154.3 192.5 157 L 186.5 159 L 181.5 159 Q 174.1 157.9 171 152.5 Q 167.6 147.4 169 137.5 Q 170.8 130.3 176.5 127 L 183.5 125 Z M 181 131 L 177 137 L 178 139 L 190 139 L 189 134 Q 188 130 181 131 Z " /><path fill="rgb(44,44,44)" stroke="rgb(44,44,44)" stroke-width="1" opacity="1" d="M 217.5 125 Q 221.5 126.7 220 133 Q 212.4 131.9 210 137.5 L 209 141.5 L 209 158 L 201.5 158 L 201 157.5 L 201 127.5 Q 202.3 124.8 207.5 126 Q 210.1 127.4 209.5 132 L 212 127 L 217.5 125 Z " /><path fill="rgb(44,44,44)" stroke="rgb(44,44,44)" stroke-width="1" opacity="1" d="M 233.5 125 L 239.5 126 L 245 130.5 L 246 133.5 L 246 152.5 L 247.5 154 Q 252.1 152.8 250 158 L 243.5 159 L 240 156.5 L 238.5 154 Q 236 159.5 227.5 159 L 221 154.5 L 220 148.5 L 224.5 143 L 238 138 L 237 131 L 230.5 131 L 229 132.5 L 228 137 Q 223.3 137.9 221 135.5 L 222 131.5 L 226.5 127 L 233.5 125 Z M 236 143 L 228 148 Q 227 153 231 154 L 236 153 L 238 150 L 238 143 L 236 143 Z " /><path fill="rgb(227,227,227)" stroke="rgb(227,227,227)" stroke-width="1" opacity="1" d="M 43.5 118 L 46 118.5 L 43.5 119 L 43.5 118 Z " /><path fill="rgb(227,227,227)" stroke="rgb(227,227,227)" stroke-width="1" opacity="1" d="M 23.5 119 L 22.5 121 L 23.5 119 Z " /><path fill="rgb(227,227,227)" stroke="rgb(227,227,227)" stroke-width="1" opacity="1" d="M 47.5 119 L 49.5 122 L 47.5 119 Z " /><path fill="rgb(227,227,227)" stroke="rgb(227,227,227)" stroke-width="1" opacity="1" d="M 152.5 119 L 160 119.5 L 152.5 120 L 152.5 119 Z " /><path fill="rgb(227,227,227)" stroke="rgb(227,227,227)" stroke-width="1" opacity="1" d="M 84.5 125 L 87 125.5 L 84.5 126 L 84.5 125 Z " /><path fill="rgb(227,227,227)" stroke="rgb(227,227,227)" stroke-width="1" opacity="1" d="M 88.5 125 L 91 125.5 L 88.5 126 L 88.5 125 Z " /><path fill="rgb(227,227,227)" stroke="rgb(227,227,227)" stroke-width="1" opacity="1" d="M 103.5 125 L 106 125.5 L 103.5 126 L 103.5 125 Z " /><path fill="rgb(227,227,227)" stroke="rgb(227,227,227)" stroke-width="1" opacity="1" d="M 107.5 125 L 110 125.5 L 107.5 126 L 107.5 125 Z " /><path fill="rgb(227,227,227)" stroke="rgb(227,227,227)" stroke-width="1" opacity="1" d="M 128.5 125 L 131 125.5 L 128.5 126 L 128.5 125 Z " /><path fill="rgb(227,227,227)" stroke="rgb(227,227,227)" stroke-width="1" opacity="1" d="M 133.5 125 L 136 125.5 L 133.5 126 L 133.5 125 Z " /><path fill="rgb(227,227,227)" stroke="rgb(227,227,227)" stroke-width="1" opacity="1" d="M 180.5 125 L 183 125.5 L 180.5 126 L 180.5 125 Z " /><path fill="rgb(227,227,227)" stroke="rgb(227,227,227)" stroke-width="1" opacity="1" d="M 185.5 125 L 188 125.5 L 185.5 126 L 185.5 125 Z " /><path fill="rgb(227,227,227)" stroke="rgb(227,227,227)" stroke-width="1" opacity="1" d="M 214.5 125 L 217 125.5 L 213.5 127 L 214.5 125 Z " /><path fill="rgb(227,227,227)" stroke="rgb(227,227,227)" stroke-width="1" opacity="1" d="M 218.5 125 L 219.5 127 L 218.5 125 Z " /><path fill="rgb(227,227,227)" stroke="rgb(227,227,227)" stroke-width="1" opacity="1" d="M 229.5 125 L 233 125.5 L 229.5 126 L 229.5 125 Z " /><path fill="rgb(227,227,227)" stroke="rgb(227,227,227)" stroke-width="1" opacity="1" d="M 235.5 125 L 238 125.5 L 235.5 126 L 235.5 125 Z " /><path fill="rgb(227,227,227)" stroke="rgb(227,227,227)" stroke-width="1" opacity="1" d="M 20.5 126 L 21 128.5 L 20 128.5 L 20.5 126 Z " /><path fill="rgb(227,227,227)" stroke="rgb(227,227,227)" stroke-width="1" opacity="1" d="M 76.5 126 L 77 128.5 L 76 128.5 L 76.5 126 Z " /><path fill="rgb(227,227,227)" stroke="rgb(227,227,227)" stroke-width="1" opacity="1" d="M 99.5 127 L 97.5 130 L 99.5 127 Z " /><path fill="rgb(227,227,227)" stroke="rgb(227,227,227)" stroke-width="1" opacity="1" d="M 123.5 127 L 121.5 130 L 123.5 127 Z " /><path fill="rgb(227,227,227)" stroke="rgb(227,227,227)" stroke-width="1" opacity="1" d="M 140.5 127 L 142.5 130 L 140.5 127 Z " /><path fill="rgb(227,227,227)" stroke="rgb(227,227,227)" stroke-width="1" opacity="1" d="M 175.5 127 L 171.5 132 L 175.5 127 Z " /><path fill="rgb(227,227,227)" stroke="rgb(227,227,227)" stroke-width="1" opacity="1" d="M 225.5 127 L 223.5 130 L 225.5 127 Z " /><path fill="rgb(227,227,227)" stroke="rgb(227,227,227)" stroke-width="1" opacity="1" d="M 242.5 127 L 244.5 130 L 242.5 127 Z " /><path fill="rgb(227,227,227)" stroke="rgb(227,227,227)" stroke-width="1" opacity="1" d="M 79.5 128 L 78.5 130 L 79.5 128 Z " /><path fill="rgb(227,227,227)" stroke="rgb(227,227,227)" stroke-width="1" opacity="1" d="M 211.5 128 L 210.5 130 L 211.5 128 Z " /><path fill="rgb(227,227,227)" stroke="rgb(227,227,227)" stroke-width="1" opacity="1" d="M 37.5 129 L 38 131.5 L 37 131.5 L 37.5 129 Z " /><path fill="rgb(227,227,227)" stroke="rgb(227,227,227)" stroke-width="1" opacity="1" d="M 128.5 131 L 127.5 133 L 128.5 131 Z " /><path fill="rgb(227,227,227)" stroke="rgb(227,227,227)" stroke-width="1" opacity="1" d="M 180.5 131 L 178.5 134 L 180.5 131 Z " /><path fill="rgb(227,227,227)" stroke="rgb(227,227,227)" stroke-width="1" opacity="1" d="M 230.5 131 L 229.5 133 L 230.5 131 Z " /><path fill="rgb(227,227,227)" stroke="rgb(227,227,227)" stroke-width="1" opacity="1" d="M 81.5 132 L 79.5 135 L 81.5 132 Z " /><path fill="rgb(227,227,227)" stroke="rgb(227,227,227)" stroke-width="1" opacity="1" d="M 100.5 132 L 98.5 135 L 100.5 132 Z " /><path fill="rgb(227,227,227)" stroke="rgb(227,227,227)" stroke-width="1" opacity="1" d="M 119.5 133 L 121 136.5 L 119 137 L 119.5 133 Z " /><path fill="rgb(227,227,227)" stroke="rgb(227,227,227)" stroke-width="1" opacity="1" d="M 213.5 134 L 211 137.5 L 210.5 139 L 210 137.5 L 213.5 134 Z " /><path fill="rgb(227,227,227)" stroke="rgb(227,227,227)" stroke-width="1" opacity="1" d="M 189.5 135 L 190 137.5 L 189 137.5 L 189.5 135 Z " /><path fill="rgb(227,227,227)" stroke="rgb(227,227,227)" stroke-width="1" opacity="1" d="M 19.5 136 L 20 138.5 Q 18.5 141.5 12.5 140 L 12.5 139 L 19 139 L 19.5 136 Z " /><path fill="rgb(227,227,227)" stroke="rgb(227,227,227)" stroke-width="1" opacity="1" d="M 24.5 137 L 25.5 139 L 24.5 137 Z " /><path fill="rgb(227,227,227)" stroke="rgb(227,227,227)" stroke-width="1" opacity="1" d="M 42.5 137 L 43.5 139 L 42.5 137 Z " /><path fill="rgb(227,227,227)" stroke="rgb(227,227,227)" stroke-width="1" opacity="1" d="M 96.5 138 L 97 140.5 L 96 140.5 L 96.5 138 Z " /><path fill="rgb(227,227,227)" stroke="rgb(227,227,227)" stroke-width="1" opacity="1" d="M 39.5 139 L 40 142.5 L 39 142.5 L 39.5 139 Z " /><path fill="rgb(227,227,227)" stroke="rgb(227,227,227)" stroke-width="1" opacity="1" d="M 77.5 139 L 78 159 L 69 158.5 L 77 158 L 77.5 139 Z " /><path fill="rgb(227,227,227)" stroke="rgb(227,227,227)" stroke-width="1" opacity="1" d="M 168.5 139 L 169 145.5 L 168 145.5 L 168.5 139 Z " /><path fill="rgb(227,227,227)" stroke="rgb(227,227,227)" stroke-width="1" opacity="1" d="M 21.5 140 L 22 150.5 L 21 150.5 L 21.5 140 Z " /><path fill="rgb(227,227,227)" stroke="rgb(227,227,227)" stroke-width="1" opacity="1" d="M 198.5 141 L 199 144 L 177 143.5 L 198 143 L 198.5 141 Z " /><path fill="rgb(227,227,227)" stroke="rgb(227,227,227)" stroke-width="1" opacity="1" d="M 209.5 141 L 210 159 L 201 158.5 L 209 158 L 209.5 141 Z " /><path fill="rgb(227,227,227)" stroke="rgb(227,227,227)" stroke-width="1" opacity="1" d="M 121.5 143 L 119.5 146 L 121.5 143 Z " /><path fill="rgb(227,227,227)" stroke="rgb(227,227,227)" stroke-width="1" opacity="1" d="M 223.5 143 L 221.5 146 L 223.5 143 Z " /><path fill="rgb(227,227,227)" stroke="rgb(227,227,227)" stroke-width="1" opacity="1" d="M 39.5 144 L 40 150.5 L 39 150.5 L 39.5 144 Z " /><path fill="rgb(227,227,227)" stroke="rgb(227,227,227)" stroke-width="1" opacity="1" d="M 128.5 145 L 127 147.5 L 126.5 149 L 126 147.5 L 128.5 145 Z " /><path fill="rgb(227,227,227)" stroke="rgb(227,227,227)" stroke-width="1" opacity="1" d="M 230.5 145 L 228.5 148 L 230.5 145 Z " /><path fill="rgb(227,227,227)" stroke="rgb(227,227,227)" stroke-width="1" opacity="1" d="M 10.5 147 L 11 149.5 L 10 149.5 L 10.5 147 Z " /><path fill="rgb(227,227,227)" stroke="rgb(227,227,227)" stroke-width="1" opacity="1" d="M 190.5 150 L 188.5 153 L 190.5 150 Z " /><path fill="rgb(227,227,227)" stroke="rgb(227,227,227)" stroke-width="1" opacity="1" d="M 179.5 151 L 180.5 153 L 179.5 151 Z " /><path fill="rgb(227,227,227)" stroke="rgb(227,227,227)" stroke-width="1" opacity="1" d="M 236.5 151 L 235.5 153 L 236.5 151 Z " /><path fill="rgb(227,227,227)" stroke="rgb(227,227,227)" stroke-width="1" opacity="1" d="M 162.5 152 L 165 152.5 L 162.5 153 L 162.5 152 Z " /><path fill="rgb(227,227,227)" stroke="rgb(227,227,227)" stroke-width="1" opacity="1" d="M 246.5 152 L 249 153.5 L 247.5 154 L 246.5 152 Z " /><path fill="rgb(227,227,227)" stroke="rgb(227,227,227)" stroke-width="1" opacity="1" d="M 11.5 153 L 12 155.5 L 11 155.5 L 11.5 153 Z " /><path fill="rgb(227,227,227)" stroke="rgb(227,227,227)" stroke-width="1" opacity="1" d="M 29.5 153 L 30 155.5 L 29 155.5 L 29.5 153 Z " /><path fill="rgb(227,227,227)" stroke="rgb(227,227,227)" stroke-width="1" opacity="1" d="M 152.5 153 L 155.5 157 L 157 157.5 L 155.5 158 L 152 154.5 L 152.5 153 Z " /><path fill="rgb(227,227,227)" stroke="rgb(227,227,227)" stroke-width="1" opacity="1" d="M 168.5 153 L 169 159 L 159 158.5 L 168 158 L 168.5 153 Z " /><path fill="rgb(227,227,227)" stroke="rgb(227,227,227)" stroke-width="1" opacity="1" d="M 171.5 153 L 173.5 156 L 171.5 153 Z " /><path fill="rgb(227,227,227)" stroke="rgb(227,227,227)" stroke-width="1" opacity="1" d="M 182.5 153 L 186 153.5 L 182.5 154 L 182.5 153 Z " /><path fill="rgb(227,227,227)" stroke="rgb(227,227,227)" stroke-width="1" opacity="1" d="M 136.5 154 L 137.5 156 L 136.5 155 L 133 157.5 L 136.5 154 Z " /><path fill="rgb(227,227,227)" stroke="rgb(227,227,227)" stroke-width="1" opacity="1" d="M 22.5 155 L 23 157.5 L 21.5 159 L 12.5 159 L 12.5 158 L 21.5 158 L 22.5 155 Z " /><path fill="rgb(227,227,227)" stroke="rgb(227,227,227)" stroke-width="1" opacity="1" d="M 40.5 155 L 41 157.5 L 39.5 159 L 30.5 159 L 30.5 158 L 39.5 158 L 40.5 155 Z " /><path fill="rgb(227,227,227)" stroke="rgb(227,227,227)" stroke-width="1" opacity="1" d="M 58.5 155 L 59 157.5 L 57.5 159 L 48.5 159 L 48.5 158 L 57.5 158 L 58.5 155 Z " /><path fill="rgb(227,227,227)" stroke="rgb(227,227,227)" stroke-width="1" opacity="1" d="M 119.5 155 L 121.5 158 L 119.5 155 Z " /><path fill="rgb(227,227,227)" stroke="rgb(227,227,227)" stroke-width="1" opacity="1" d="M 221.5 155 L 223.5 158 L 221.5 155 Z " /><path fill="rgb(227,227,227)" stroke="rgb(227,227,227)" stroke-width="1" opacity="1" d="M 237.5 155 L 235.5 158 L 237.5 155 Z " /><path fill="rgb(227,227,227)" stroke="rgb(227,227,227)" stroke-width="1" opacity="1" d="M 88.5 158 L 96 158.5 L 88.5 159 L 88.5 158 Z " /><path fill="rgb(227,227,227)" stroke="rgb(227,227,227)" stroke-width="1" opacity="1" d="M 107.5 158 L 115 158.5 L 107.5 159 L 107.5 158 Z " /><path fill="rgb(228,228,228)" stroke="rgb(228,228,228)" stroke-width="1" opacity="1" d="M 0 0 L 273 0 L 273 285 L 0 285 L 0 0 Z M 26 118 L 24 119 L 20 127 Q 21 135 19 139 Q 12 137 10 142 L 10 150 L 12 159 L 22 159 L 23 158 L 22 155 L 22 139 L 24 137 L 26 140 L 28 146 L 30 159 L 40 159 L 41 158 Q 39 153 40 145 L 39 144 L 42 137 L 45 143 L 48 159 L 58 159 L 59 158 L 54 134 L 50 122 L 46 118 L 41 119 L 37 130 Q 39 135 35 134 L 32 123 L 26 118 Z M 152 119 L 152 126 L 146 126 L 146 132 L 152 132 L 152 133 L 152 155 L 156 158 L 160 159 L 169 159 L 169 153 L 161 152 L 160 150 L 160 132 L 168 132 L 168 126 L 160 126 L 160 119 L 152 119 Z M 85 125 L 80 128 L 78 131 L 77 131 L 77 126 L 69 126 L 69 159 L 70 159 L 78 159 L 78 138 L 79 136 Q 81 131 87 132 L 88 135 L 88 159 L 89 159 L 96 159 L 96 142 L 98 136 Q 100 131 106 132 L 107 135 L 107 159 L 108 159 L 115 159 L 115 131 L 114 129 L 110 125 Q 103 124 100 127 L 97 131 L 95 127 Q 92 124 85 125 Z M 129 125 L 124 127 L 119 134 L 119 137 L 126 137 L 127 134 Q 128 130 134 131 L 136 137 L 122 143 L 118 148 L 119 156 L 124 159 Q 130 160 134 158 L 137 155 L 141 159 L 149 159 L 149 154 L 146 153 L 144 152 L 144 132 L 143 130 Q 139 124 129 125 Z M 181 125 L 176 127 Q 169 131 168 140 L 168 146 L 171 154 L 180 159 L 192 158 Q 198 155 198 147 L 193 146 L 191 150 Q 190 155 182 153 L 178 150 L 177 146 L 178 144 L 199 144 L 198 136 L 196 132 L 188 125 L 181 125 Z M 215 125 L 210 131 L 209 131 L 209 126 L 201 126 L 201 159 L 202 159 L 210 159 L 210 140 L 211 138 Q 212 133 217 134 L 219 134 L 220 134 L 220 127 Q 219 124 215 125 Z M 230 125 L 226 127 L 221 134 L 221 137 L 228 137 L 229 134 Q 230 130 236 131 L 238 137 L 224 143 L 220 148 L 221 156 L 226 159 Q 232 160 236 158 L 239 154 L 240 158 L 243 159 L 250 159 L 250 155 L 248 153 L 246 152 L 246 132 L 245 130 Q 241 124 230 125 Z " /><path fill="rgb(228,228,228)" stroke="rgb(228,228,228)" stroke-width="1" opacity="1" d="M 181.5 131 L 188 132 L 190 138.5 L 177.5 139 L 178 137.5 Q 177.3 131.8 181.5 131 Z " /><path fill="rgb(228,228,228)" stroke="rgb(228,228,228)" stroke-width="1" opacity="1" d="M 134.5 143 Q 137.3 142.4 136 148.5 L 135 152 L 130.5 154 L 127 153 L 126 149.5 L 129.5 145 L 134.5 143 Z " /><path fill="rgb(228,228,228)" stroke="rgb(228,228,228)" stroke-width="1" opacity="1" d="M 236.5 143 Q 239.3 142.4 238 148.5 L 234.5 153 L 232.5 154 L 229 153 L 228 148.5 Q 230.8 144.3 236.5 143 Z " /></svg>