<?xml version="1.0" standalone="no"?>
<!DOCTYPE svg PUBLIC "-//W3C//DTD SVG 20010904//EN"
 "http://www.w3.org/TR/2001/REC-SVG-20010904/DTD/svg10.dtd">
<svg version="1.0" xmlns="http://www.w3.org/2000/svg"
 width="163.000000pt" height="83.000000pt" viewBox="0 0 163.000000 83.000000"
 preserveAspectRatio="xMidYMid meet">
<metadata>
Created by potrace 1.16, written by Peter Selinger 2001-2019
</metadata>
<g transform="translate(0.000000,83.000000) scale(0.100000,-0.100000)"
fill="#000000" stroke="none">
<path d="M266 670 c-69 -12 -135 -56 -171 -114 -26 -43 -30 -61 -34 -132 -3
-72 0 -90 22 -138 27 -59 79 -104 145 -128 29 -10 161 -13 587 -13 l550 0 47
24 c96 47 142 125 141 241 0 119 -47 197 -145 241 l-53 24 -520 2 c-286 0
-542 -3 -569 -7z m1129 -60 c73 -36 106 -89 113 -178 9 -126 -53 -215 -168
-241 -27 -6 -239 -11 -541 -11 -559 0 -570 1 -637 68 -67 67 -82 179 -36 270
14 29 39 61 56 73 65 47 81 48 638 46 l525 -2 50 -25z"/>
<path d="M313 530 c-24 -10 -43 -39 -43 -68 0 -27 27 -48 90 -69 37 -12 56
-24 58 -37 6 -27 -15 -36 -86 -36 -55 0 -63 -2 -60 -17 3 -15 15 -18 80 -18
86 0 118 18 118 65 0 41 -29 68 -90 83 -48 12 -55 16 -55 38 0 23 4 24 63 27
54 3 62 6 62 22 0 18 -7 20 -57 19 -32 0 -68 -4 -80 -9z"/>
<path d="M680 410 l0 -130 85 0 c78 0 85 2 85 20 0 16 -8 19 -62 22 l-63 3 -3
108 c-2 99 -4 107 -22 107 -19 0 -20 -7 -20 -130z"/>
<path d="M840 528 c0 -7 20 -65 44 -128 42 -108 46 -115 74 -118 29 -3 30 -1
75 121 26 68 47 127 47 131 0 4 -10 6 -22 4 -19 -2 -29 -20 -58 -100 -19 -54
-37 -98 -40 -98 -3 0 -21 44 -40 98 -29 80 -39 98 -58 100 -13 2 -22 -2 -22
-10z"/>
<path d="M1140 410 c0 -123 1 -130 20 -130 18 0 20 7 20 57 l0 57 58 -57 c35
-35 66 -57 80 -57 32 0 28 10 -23 60 l-46 45 33 11 c43 14 66 53 53 91 -14 38
-48 53 -127 53 l-68 0 0 -130z"/>
</g>
</svg>
