<?xml version="1.0" standalone="no"?>
<!DOCTYPE svg PUBLIC "-//W3C//DTD SVG 20010904//EN"
 "http://www.w3.org/TR/2001/REC-SVG-20010904/DTD/svg10.dtd">
<svg version="1.0" xmlns="http://www.w3.org/2000/svg"
 width="216.000000pt" height="101.000000pt" viewBox="0 0 216.000000 101.000000"
 preserveAspectRatio="xMidYMid meet">
<metadata>
Created by potrace 1.16, written by Peter Selinger 2001-2019
</metadata>
<g transform="translate(0.000000,101.000000) scale(0.100000,-0.100000)"
fill="#000000" stroke="none">
<path d="M173 740 c-29 -12 -56 -66 -49 -96 8 -31 51 -53 68 -36 7 7 27 12 45
12 53 0 70 50 31 94 -26 29 -63 39 -95 26z"/>
<path d="M740 737 c-66 -33 -63 -117 4 -117 19 0 38 -4 41 -10 18 -29 75 13
75 56 0 30 -50 84 -77 84 -10 0 -29 -6 -43 -13z"/>
<path d="M1290 569 l0 -171 29 -29 c33 -33 97 -41 107 -14 11 27 -5 65 -26 65
-19 0 -20 7 -20 160 l0 160 -45 0 -45 0 0 -171z"/>
<path d="M383 711 c-51 -32 -55 -82 -12 -143 57 -79 182 -78 239 2 34 48 37
91 7 126 -24 27 -30 29 -114 32 -74 2 -93 0 -120 -17z"/>
<path d="M1010 623 c-19 -10 -45 -34 -58 -53 -20 -29 -23 -45 -20 -93 4 -49 9
-62 38 -92 51 -52 141 -58 172 -11 5 7 8 4 8 -6 0 -15 9 -18 50 -18 l50 0 0
140 0 140 -50 0 c-40 0 -50 -3 -50 -17 0 -15 -1 -15 -19 1 -28 26 -81 30 -121
9z m124 -85 c39 -55 7 -122 -55 -116 -82 8 -71 138 11 138 18 0 34 -8 44 -22z"/>
<path d="M1510 622 c-48 -23 -84 -96 -75 -150 18 -107 126 -168 199 -111 21
17 26 18 26 5 0 -12 11 -16 45 -16 l45 0 0 140 0 140 -45 0 c-33 0 -45 -4 -45
-15 0 -12 -6 -11 -32 5 -41 25 -73 25 -118 2z m120 -72 c27 -15 36 -74 16
-105 -22 -33 -78 -35 -100 -3 -47 67 15 145 84 108z"/>
<path d="M1940 633 c-8 -3 -23 -12 -32 -21 -16 -14 -18 -13 -18 2 0 14 -8 17
-47 14 l-48 -3 0 -135 0 -135 48 -3 47 -3 0 93 c0 100 7 118 47 118 33 0 43
-29 43 -124 l0 -86 45 0 45 0 0 105 c0 59 -5 115 -12 130 -19 42 -74 64 -118
48z"/>
<path d="M350 436 c0 -47 73 -96 142 -96 73 1 158 63 142 105 -6 14 -14 16
-48 9 -54 -11 -129 -11 -188 0 -47 8 -48 8 -48 -18z"/>
</g>
</svg>
