<?xml version="1.0" encoding="UTF-8"?>
<svg version="1.1" xmlns="http://www.w3.org/2000/svg" width="216" height="101">
<path d="M0 0 C71.28 0 142.56 0 216 0 C216 33.33 216 66.66 216 101 C144.72 101 73.44 101 0 101 C0 67.67 0 34.34 0 0 Z " fill="#E3E3E3" transform="translate(0,0)"/>
<path d="M0 0 C2.4375 1.5 2.4375 1.5 4 3 C4.33 2.34 4.66 1.68 5 1 C8.3 1 11.6 1 15 1 C15 10.24 15 19.48 15 29 C10.66666667 29 6.33333333 29 2 29 C1.34 29.33 0.68 29.66 0 30 C-5.01353911 30.37838031 -8.00482115 30.13135639 -12 27 C-16.12952947 22.41163393 -17.26955666 19.20545369 -17.14453125 12.98828125 C-16.89014782 9.48879028 -16.13140058 7.1155989 -13.6015625 4.62109375 C-8.84063015 0.54527117 -6.27729092 -0.43291662 0 0 Z " fill="#181818" transform="translate(110,37)"/>
<path d="M0 0 C2.9375 1.5 2.9375 1.5 5 3 C5.33 2.34 5.66 1.68 6 1 C8.97 1 11.94 1 15 1 C15 10.24 15 19.48 15 29 C12.03 29 9.06 29 6 29 C5.67 28.34 5.34 27.68 5 27 C4.505 27.495 4.01 27.99 3.5 28.5 C0.03069864 30.58158082 -3.10497892 30.67543718 -7 30 C-11.48888973 27.71320712 -13.77072932 25.47135327 -16 21 C-16.82885269 15.45191396 -16.7240695 10.52859117 -14.3125 5.4375 C-9.82293369 0.70525443 -6.59260596 -0.70635064 0 0 Z " fill="#151515" transform="translate(160,37)"/>
<path d="M0 0 C2.875 2.4375 2.875 2.4375 5 5 C5.33 5.33 5.66 5.66 6 6 C6.08713831 7.70772358 6.10700007 9.41898649 6.09765625 11.12890625 C6.09443359 12.16337891 6.09121094 13.19785156 6.08789062 14.26367188 C6.07951172 15.35228516 6.07113281 16.44089844 6.0625 17.5625 C6.05798828 18.65498047 6.05347656 19.74746094 6.04882812 20.87304688 C6.03699826 23.58208495 6.02051543 26.29101599 6 29 C3.03 29 0.06 29 -3 29 C-3.06058594 27.72382812 -3.12117188 26.44765625 -3.18359375 25.1328125 C-3.26799568 23.46352984 -3.35264386 21.79425963 -3.4375 20.125 C-3.47681641 19.28324219 -3.51613281 18.44148438 -3.55664062 17.57421875 C-3.59853516 16.76855469 -3.64042969 15.96289062 -3.68359375 15.1328125 C-3.72025146 14.38918457 -3.75690918 13.64555664 -3.79467773 12.87939453 C-3.89955865 10.91135688 -3.89955865 10.91135688 -5 9 C-6.66611905 8.957279 -8.33382885 8.95936168 -10 9 C-11.54950268 10.54950268 -11.21655193 12.09990594 -11.31640625 14.25390625 C-11.35830078 15.10791016 -11.40019531 15.96191406 -11.44335938 16.84179688 C-11.48267578 17.73962891 -11.52199219 18.63746094 -11.5625 19.5625 C-11.60568359 20.46419922 -11.64886719 21.36589844 -11.69335938 22.29492188 C-11.79977984 24.52975156 -11.90042481 26.76485486 -12 29 C-15.3 29 -18.6 29 -22 29 C-22 19.76 -22 10.52 -22 1 C-18.7 1 -15.4 1 -12 1 C-11.67 1.66 -11.34 2.32 -11 3 C-10.484375 2.505 -9.96875 2.01 -9.4375 1.5 C-6.03618625 -0.59311615 -3.92927257 -0.55147685 0 0 Z " fill="#181818" transform="translate(201,37)"/>
<path d="M0 0 C0.75152344 -0.03738281 1.50304687 -0.07476563 2.27734375 -0.11328125 C6.32305329 -0.17682643 9.00957509 0.12543585 12.28515625 2.62109375 C14.75 5.375 14.75 5.375 15.29296875 7.62109375 C14.37053554 13.30774242 13.00357149 16.41144475 8.75 20.375 C4.48956363 22.9786 -0.39349601 23.05285126 -5.25 22.375 C-10.66721142 19.81971159 -12.87020601 16.68377122 -15.25 11.375 C-15.8125 8.1875 -15.8125 8.1875 -15.25 5.375 C-10.36543206 0.61897332 -6.59000647 0.12183205 0 0 Z " fill="#141414" transform="translate(49.25,27.625)"/>
<path d="M0 0 C2.97 0 5.94 0 9 0 C9 10.56 9 21.12 9 32 C10.32 32 11.64 32 13 32 C13 34.64 13 37.28 13 40 C8.90075477 40.32150943 6.65644914 40.41384837 3.125 38.1875 C-0.57135172 34.38243205 -0.13414542 30.48202857 -0.09765625 25.48828125 C-0.0962413 24.76005661 -0.09482635 24.03183197 -0.09336853 23.28153992 C-0.08777659 20.95848461 -0.07522562 18.63552612 -0.0625 16.3125 C-0.05748396 14.73632952 -0.05292123 13.16015752 -0.04882812 11.58398438 C-0.0378098 7.72261902 -0.02055074 3.86132592 0 0 Z " fill="#131313" transform="translate(129,27)"/>
<path d="M0 0 C1.9490625 0.2475 1.9490625 0.2475 3.9375 0.5 C12.07662782 1.39021711 19.88184893 0.94909491 28 0 C28.62890625 1.83984375 28.62890625 1.83984375 29 4 C25.47186227 8.38344385 21.53112299 11.40272827 15.8984375 12.35546875 C10.6316315 12.69030006 6.87509282 11.57744504 2.53125 8.578125 C0.04889075 6.01977517 0 3.43859826 0 0 Z " fill="#191919" transform="translate(35,55)"/>
<path d="M0 0 C3.4375 1.0625 3.4375 1.0625 5.9375 3.1875 C7.90850617 6.96526182 7.58390402 9.01187247 6.4375 13.0625 C2.83518097 15.46404602 1.99278208 15.14811222 -2.125 14.375 C-3.58099609 14.12169922 -3.58099609 14.12169922 -5.06640625 13.86328125 C-7.5625 13.0625 -7.5625 13.0625 -9.5625 10.0625 C-9.48090106 6.22734988 -8.9745783 4.53517805 -6.4375 1.625 C-3.5625 0.0625 -3.5625 0.0625 0 0 Z " fill="#1A1A1A" transform="translate(78.5625,25.9375)"/>
<path d="M0 0 C2.4375 2.1875 2.4375 2.1875 4 5 C3.69387755 10.30612245 3.69387755 10.30612245 2 12 C-0.3306218 12.35179197 -2.66435067 12.68330179 -5 13 C-5.721875 13.268125 -6.44375 13.53625 -7.1875 13.8125 C-9 14 -9 14 -11.3125 12.5 C-13 10 -13 10 -12.9375 6.4375 C-11.68965517 1.86206897 -11.68965517 1.86206897 -9 0 C-5.39297148 -1.20234284 -3.64185324 -1.0405295 0 0 Z " fill="#1A1A1A" transform="translate(25,27)"/>
<path d="M0 0 C3.5 0.4375 3.5 0.4375 5.4375 1.4375 C7.15886567 4.67771772 7.02960415 7.85707756 6.5 11.4375 C5.4375 13.4375 5.4375 13.4375 3.5 14.4375 C0 14.875 0 14.875 -3.5 14.4375 C-6.13769276 12.22524156 -6.44923246 10.84364032 -6.875 7.4375 C-6.24186108 2.37238863 -5.19492722 0.6493659 0 0 Z " fill="#DBDBDB" transform="translate(108.5,44.5625)"/>
<path d="M0 0 C2.375 1.625 2.375 1.625 4 4 C4.48746608 7.34262452 4.31565201 9.29442492 2.9375 12.375 C1 14 1 14 -2.5 14.5 C-6 14 -6 14 -7.9375 12.4375 C-9.39343329 9.09741776 -9.3931463 6.60384106 -9 3 C-6.84532543 -0.71082843 -4.00794956 -0.57256422 0 0 Z " fill="#DDDDDD" transform="translate(162,45)"/>
</svg>
