<svg width="273" height="285" version="1.1" xmlns="http://www.w3.org/2000/svg" desc="Created with imagetracer.js version 1.2.6" ><path fill="rgb(42,42,42)" stroke="rgb(42,42,42)" stroke-width="1" opacity="1" d="M 76.5 121 L 88.5 122 L 96 128.5 L 89.5 133 Q 87.1 127.4 77.5 129 L 72 133.5 L 71 142.5 L 73 147 L 78.5 150 L 82.5 150 L 90.5 145 L 96 149.5 L 92.5 154 L 86.5 157 L 80.5 158 L 72.5 156 L 67 151.5 Q 61.2 146.8 63 134.5 Q 65.1 126.6 71.5 123 L 76.5 121 Z " /><path fill="rgb(42,42,42)" stroke="rgb(42,42,42)" stroke-width="1" opacity="1" d="M 103 121 L 111 121 L 111 135 L 125 135 L 125 121 L 133 121 L 133 156.5 L 132.5 157 L 125 157 L 125 143 L 111 143 L 111 157 L 103 157 L 103 121 Z " /><path fill="rgb(42,42,42)" stroke="rgb(42,42,42)" stroke-width="1" opacity="1" d="M 156.5 121 L 174 156.5 L 165 157 L 162.5 152 L 150.5 152 L 149 153.5 L 148 157 L 139 156.5 L 156.5 121 Z M 157 138 L 154 144 L 154 145 L 160 145 L 157 138 Z " /><path fill="rgb(42,42,42)" stroke="rgb(42,42,42)" stroke-width="1" opacity="1" d="M 180 121 L 188 121 L 188 138.5 L 189.5 138 L 209.5 121 L 210 157 L 202 157 L 202 139.5 L 197.5 143 L 180.5 157 L 180 121 Z " /><path fill="rgb(42,42,42)" stroke="rgb(42,42,42)" stroke-width="1" opacity="1" d="M 231.5 121 L 241.5 121 L 251 127.5 L 246.5 133 L 244 133 Q 245.1 130.3 242.5 131 Q 240.5 127 232.5 129 Q 226.4 131.4 226 139.5 L 228 145.5 L 230.5 148 Q 232.8 150.7 238.5 150 L 245.5 145 L 251 149.5 L 246.5 155 L 242.5 157 L 235.5 158 L 226.5 155 L 221 149.5 Q 217.8 145.2 218 137.5 L 220 130.5 L 225.5 124 L 231.5 121 Z " /><path fill="rgb(42,42,42)" stroke="rgb(42,42,42)" stroke-width="1" opacity="1" d="M 259 121 L 273 121 L 273 129 L 267 129 L 267 135 L 273 135 L 273 143 L 267 143 L 267 149 L 273 149 L 273 157 L 259 157 L 259 121 Z " /><path fill="rgb(227,227,227)" stroke="rgb(227,227,227)" stroke-width="1" opacity="1" d="M 79.5 120 L 83 120.5 L 79.5 121 L 79.5 120 Z " /><path fill="rgb(227,227,227)" stroke="rgb(227,227,227)" stroke-width="1" opacity="1" d="M 210.5 120 L 211 158 L 202 157.5 L 210 157 L 210.5 120 Z " /><path fill="rgb(227,227,227)" stroke="rgb(227,227,227)" stroke-width="1" opacity="1" d="M 235.5 120 L 238 120.5 L 235.5 121 L 235.5 120 Z " /><path fill="rgb(227,227,227)" stroke="rgb(227,227,227)" stroke-width="1" opacity="1" d="M 102.5 121 L 103 157 L 111 157.5 L 103.5 158 L 102 156.5 L 102.5 121 Z " /><path fill="rgb(227,227,227)" stroke="rgb(227,227,227)" stroke-width="1" opacity="1" d="M 133.5 121 L 134 158 L 125 157.5 L 133 157 L 133.5 121 Z " /><path fill="rgb(227,227,227)" stroke="rgb(227,227,227)" stroke-width="1" opacity="1" d="M 155.5 121 L 156 122.5 L 154.5 125 L 154 123.5 L 155.5 121 Z " /><path fill="rgb(227,227,227)" stroke="rgb(227,227,227)" stroke-width="1" opacity="1" d="M 179.5 121 L 180.5 157 L 183 155.5 L 179 158 L 179.5 121 Z " /><path fill="rgb(227,227,227)" stroke="rgb(227,227,227)" stroke-width="1" opacity="1" d="M 208.5 121 L 204.5 126 L 208.5 121 Z " /><path fill="rgb(227,227,227)" stroke="rgb(227,227,227)" stroke-width="1" opacity="1" d="M 258.5 121 L 259 157 L 273 157.5 L 258 158 L 258.5 121 Z " /><path fill="rgb(227,227,227)" stroke="rgb(227,227,227)" stroke-width="1" opacity="1" d="M 89.5 122 L 96 127.5 L 91.5 124 L 89.5 122 Z " /><path fill="rgb(227,227,227)" stroke="rgb(227,227,227)" stroke-width="1" opacity="1" d="M 70.5 123 L 65.5 129 L 70.5 123 Z " /><path fill="rgb(227,227,227)" stroke="rgb(227,227,227)" stroke-width="1" opacity="1" d="M 201.5 127 L 197.5 132 L 201.5 127 Z " /><path fill="rgb(227,227,227)" stroke="rgb(227,227,227)" stroke-width="1" opacity="1" d="M 251.5 128 L 247.5 133 L 251.5 128 Z " /><path fill="rgb(227,227,227)" stroke="rgb(227,227,227)" stroke-width="1" opacity="1" d="M 267.5 129 L 273 129.5 L 267.5 130 L 267.5 129 Z " /><path fill="rgb(227,227,227)" stroke="rgb(227,227,227)" stroke-width="1" opacity="1" d="M 75.5 130 L 72.5 134 L 75.5 130 Z " /><path fill="rgb(227,227,227)" stroke="rgb(227,227,227)" stroke-width="1" opacity="1" d="M 86.5 130 L 90.5 133 L 94 130.5 L 89.5 134 L 86.5 130 Z " /><path fill="rgb(227,227,227)" stroke="rgb(227,227,227)" stroke-width="1" opacity="1" d="M 194.5 133 L 190.5 138 L 194.5 133 Z " /><path fill="rgb(227,227,227)" stroke="rgb(227,227,227)" stroke-width="1" opacity="1" d="M 228.5 133 L 227.5 135 L 228.5 133 Z " /><path fill="rgb(227,227,227)" stroke="rgb(227,227,227)" stroke-width="1" opacity="1" d="M 218.5 134 L 219 136.5 L 218 136.5 L 218.5 134 Z " /><path fill="rgb(227,227,227)" stroke="rgb(227,227,227)" stroke-width="1" opacity="1" d="M 62.5 136 L 63 142.5 L 62 142.5 L 62.5 136 Z " /><path fill="rgb(227,227,227)" stroke="rgb(227,227,227)" stroke-width="1" opacity="1" d="M 201.5 139 L 199.5 142 L 201.5 139 Z " /><path fill="rgb(227,227,227)" stroke="rgb(227,227,227)" stroke-width="1" opacity="1" d="M 167.5 142 L 171 149.5 L 170 149.5 L 167.5 142 Z " /><path fill="rgb(227,227,227)" stroke="rgb(227,227,227)" stroke-width="1" opacity="1" d="M 111.5 143 L 125 143.5 L 111.5 144 L 111.5 143 Z " /><path fill="rgb(227,227,227)" stroke="rgb(227,227,227)" stroke-width="1" opacity="1" d="M 196.5 143 L 192.5 148 L 196.5 143 Z " /><path fill="rgb(227,227,227)" stroke="rgb(227,227,227)" stroke-width="1" opacity="1" d="M 267.5 143 L 273 143.5 L 267.5 144 L 267.5 143 Z " /><path fill="rgb(227,227,227)" stroke="rgb(227,227,227)" stroke-width="1" opacity="1" d="M 89.5 144 L 88.5 146 L 89.5 144 Z " /><path fill="rgb(227,227,227)" stroke="rgb(227,227,227)" stroke-width="1" opacity="1" d="M 144.5 144 L 145 145.5 L 141.5 152 L 141 150.5 L 144.5 144 Z " /><path fill="rgb(227,227,227)" stroke="rgb(227,227,227)" stroke-width="1" opacity="1" d="M 245.5 144 L 246.5 146 L 245.5 145 L 242 147.5 L 245.5 144 Z " /><path fill="rgb(227,227,227)" stroke="rgb(227,227,227)" stroke-width="1" opacity="1" d="M 228.5 145 L 230.5 148 L 228.5 145 Z " /><path fill="rgb(227,227,227)" stroke="rgb(227,227,227)" stroke-width="1" opacity="1" d="M 92.5 146 L 94.5 149 L 92.5 146 Z " /><path fill="rgb(227,227,227)" stroke="rgb(227,227,227)" stroke-width="1" opacity="1" d="M 86.5 147 L 85.5 149 L 86.5 147 Z " /><path fill="rgb(227,227,227)" stroke="rgb(227,227,227)" stroke-width="1" opacity="1" d="M 249.5 147 L 252 150.5 L 247 154.5 L 251 149.5 L 249.5 147 Z " /><path fill="rgb(227,227,227)" stroke="rgb(227,227,227)" stroke-width="1" opacity="1" d="M 65.5 149 L 66.5 151 L 65.5 149 Z " /><path fill="rgb(227,227,227)" stroke="rgb(227,227,227)" stroke-width="1" opacity="1" d="M 78.5 149 L 83 149.5 L 78.5 150 L 78.5 149 Z " /><path fill="rgb(227,227,227)" stroke="rgb(227,227,227)" stroke-width="1" opacity="1" d="M 189.5 149 L 185.5 154 L 189.5 149 Z " /><path fill="rgb(227,227,227)" stroke="rgb(227,227,227)" stroke-width="1" opacity="1" d="M 234.5 149 L 239 149.5 L 234.5 150 L 234.5 149 Z " /><path fill="rgb(227,227,227)" stroke="rgb(227,227,227)" stroke-width="1" opacity="1" d="M 95.5 150 L 94.5 152 L 95.5 150 Z " /><path fill="rgb(227,227,227)" stroke="rgb(227,227,227)" stroke-width="1" opacity="1" d="M 221.5 150 L 224.5 154 L 221.5 150 Z " /><path fill="rgb(227,227,227)" stroke="rgb(227,227,227)" stroke-width="1" opacity="1" d="M 69.5 153 L 71.5 156 L 69.5 153 Z " /><path fill="rgb(227,227,227)" stroke="rgb(227,227,227)" stroke-width="1" opacity="1" d="M 76.5 157 L 80 157.5 L 76.5 158 L 76.5 157 Z " /><path fill="rgb(227,227,227)" stroke="rgb(227,227,227)" stroke-width="1" opacity="1" d="M 82.5 157 L 85 157.5 L 82.5 158 L 82.5 157 Z " /><path fill="rgb(227,227,227)" stroke="rgb(227,227,227)" stroke-width="1" opacity="1" d="M 139.5 157 L 148 157.5 L 139.5 158 L 139.5 157 Z " /><path fill="rgb(227,227,227)" stroke="rgb(227,227,227)" stroke-width="1" opacity="1" d="M 165.5 157 L 174 157.5 L 165.5 158 L 165.5 157 Z " /><path fill="rgb(227,227,227)" stroke="rgb(227,227,227)" stroke-width="1" opacity="1" d="M 232.5 157 L 235 157.5 L 232.5 158 L 232.5 157 Z " /><path fill="rgb(227,227,227)" stroke="rgb(227,227,227)" stroke-width="1" opacity="1" d="M 238.5 157 L 241 157.5 L 238.5 158 L 238.5 157 Z " /><path fill="rgb(228,228,228)" stroke="rgb(228,228,228)" stroke-width="1" opacity="1" d="M 0 0 L 273 0 L 273 121 L 258 121 L 258 158 L 272.5 158 L 273 158.5 L 273 285 L 0 285 L 0 0 Z M 80 120 L 71 123 Q 64 127 62 137 L 62 143 L 67 153 L 77 158 Q 87 159 92 155 L 96 150 L 90 144 L 88 147 L 85 149 L 76 148 L 71 142 L 72 135 L 79 129 L 84 129 L 91 134 L 96 128 Q 91 120 80 120 Z M 211 120 L 189 139 L 188 121 L 180 121 L 179 122 L 179 158 L 200 142 L 202 141 L 202 158 L 211 158 L 211 120 Z M 236 120 L 227 123 Q 221 127 218 135 Q 217 145 221 151 Q 225 156 233 158 Q 243 159 248 155 L 252 150 L 246 144 L 240 149 L 232 148 L 227 143 Q 226 135 229 133 L 234 129 Q 243 128 246 134 L 248 133 L 252 129 L 251 128 Q 252 125 249 126 L 249 124 Q 244 120 236 120 Z M 102 121 L 102 157 L 104 158 L 111 158 L 111 144 L 125 144 L 125 158 L 134 158 L 134 158 L 134 121 L 125 121 L 125 135 L 111 135 L 111 121 L 102 121 Z M 155 121 L 139 156 L 140 158 L 148 158 L 150 154 L 151 152 L 163 152 L 165 157 L 166 158 L 174 158 L 171 149 L 158 124 Q 159 119 155 121 Z " /><path fill="rgb(228,228,228)" stroke="rgb(228,228,228)" stroke-width="1" opacity="1" d="M 267 130 L 273 130 L 273 135 L 267 135 L 267 130 Z " /><path fill="rgb(228,228,228)" stroke="rgb(228,228,228)" stroke-width="1" opacity="1" d="M 156.5 139 L 159 145 L 154 145 L 154 143.5 L 156.5 139 Z " /><path fill="rgb(228,228,228)" stroke="rgb(228,228,228)" stroke-width="1" opacity="1" d="M 267 144 L 273 144 L 273 149 L 267 149 L 267 144 Z " /></svg>