<svg width="274" height="285" version="1.1" xmlns="http://www.w3.org/2000/svg" desc="Created with imagetracer.js version 1.2.6" ><path fill="rgb(40,40,40)" stroke="rgb(40,40,40)" stroke-width="1" opacity="1" d="M 65.5 118 Q 71.9 118.1 74 122.5 L 75 127.5 L 72.5 131 L 66.5 131 L 62.5 133 L 59 130.5 L 58 125.5 L 62.5 119 L 65.5 118 Z " /><path fill="rgb(40,40,40)" stroke="rgb(40,40,40)" stroke-width="1" opacity="1" d="M 122.5 118 Q 128.9 118.1 131 122.5 L 132 128.5 L 129.5 132 L 125.5 133 L 123.5 131 Q 117.5 132.5 116 129.5 L 115 124.5 L 119.5 119 L 122.5 118 Z " /><path fill="rgb(40,40,40)" stroke="rgb(40,40,40)" stroke-width="1" opacity="1" d="M 94.5 119 L 105.5 121 L 110 125.5 Q 110.4 136.4 103.5 140 Q 99.5 143.5 90.5 142 L 83 136.5 Q 79.3 133.7 80 126.5 L 83.5 122 L 87.5 120 Q 93 121.5 94.5 119 Z " /><path fill="rgb(40,40,40)" stroke="rgb(40,40,40)" stroke-width="1" opacity="1" d="M 175 119 L 183.5 119 L 184 119.5 L 184 149.5 L 188 151 L 189 157.5 Q 187.5 160.5 181.5 159 L 176 154.5 L 175 152.5 L 175 119 Z " /><path fill="rgb(40,40,40)" stroke="rgb(40,40,40)" stroke-width="1" opacity="1" d="M 149.5 129 Q 157.9 128.1 160.5 133 L 161 130 L 171 130 L 171 158 L 161.5 158 L 161 155.5 L 160 155.5 Q 160.8 157.8 158.5 157 Q 156.2 160.2 149.5 159 Q 142.6 157.4 140 151.5 L 139 139.5 L 142 133 L 149.5 129 Z M 153 137 L 150 138 L 148 143 Q 147 149 152 151 Q 160 153 161 148 L 160 140 Q 159 136 153 137 Z " /><path fill="rgb(40,40,40)" stroke="rgb(40,40,40)" stroke-width="1" opacity="1" d="M 200.5 129 Q 209 128 211.5 133 L 212 130 L 220.5 130 L 221 130.5 L 221 158 L 212.5 158 L 212 155.5 L 208.5 158 L 200.5 159 Q 194.8 157.8 192 153.5 Q 188.8 149.2 189 141.5 Q 190.5 134.6 195.5 131 L 200.5 129 Z M 203 137 L 199 142 L 200 149 Q 202 153 209 151 L 212 147 L 211 140 Q 209 136 203 137 Z " /><path fill="rgb(40,40,40)" stroke="rgb(40,40,40)" stroke-width="1" opacity="1" d="M 241.5 129 Q 248.8 128.2 251 132.5 L 253 136.5 L 253 158 L 244 158 L 244 140.5 L 241.5 137 Q 236 136 235 139.5 L 235 158 L 225 158 L 225 131.5 L 226.5 130 L 234.5 130 L 235 132.5 L 238.5 130 L 241.5 129 Z " /><path fill="rgb(40,40,40)" stroke="rgb(40,40,40)" stroke-width="1" opacity="1" d="M 81 147 L 91.5 149 L 98.5 149 L 109 147 L 110 150.5 L 105.5 156 Q 101.1 160 91.5 159 L 82 153.5 L 81 147 Z " /><path fill="rgb(227,227,227)" stroke="rgb(227,227,227)" stroke-width="1" opacity="1" d="M 71.5 119 L 73.5 122 L 71.5 119 Z " /><path fill="rgb(227,227,227)" stroke="rgb(227,227,227)" stroke-width="1" opacity="1" d="M 89.5 119 L 94 119.5 L 89.5 120 L 89.5 119 Z " /><path fill="rgb(227,227,227)" stroke="rgb(227,227,227)" stroke-width="1" opacity="1" d="M 96.5 119 L 101 119.5 L 96.5 120 L 96.5 119 Z " /><path fill="rgb(227,227,227)" stroke="rgb(227,227,227)" stroke-width="1" opacity="1" d="M 118.5 119 L 116.5 122 L 118.5 119 Z " /><path fill="rgb(227,227,227)" stroke="rgb(227,227,227)" stroke-width="1" opacity="1" d="M 128.5 119 L 130.5 122 L 128.5 119 Z " /><path fill="rgb(227,227,227)" stroke="rgb(227,227,227)" stroke-width="1" opacity="1" d="M 174.5 120 L 175 148.5 L 174 148.5 L 174.5 120 Z " /><path fill="rgb(227,227,227)" stroke="rgb(227,227,227)" stroke-width="1" opacity="1" d="M 184.5 120 L 185 149.5 L 184 149.5 L 184.5 120 Z " /><path fill="rgb(227,227,227)" stroke="rgb(227,227,227)" stroke-width="1" opacity="1" d="M 106.5 121 L 109.5 125 L 106.5 121 Z " /><path fill="rgb(227,227,227)" stroke="rgb(227,227,227)" stroke-width="1" opacity="1" d="M 82.5 122 L 81.5 124 L 82.5 122 Z " /><path fill="rgb(227,227,227)" stroke="rgb(227,227,227)" stroke-width="1" opacity="1" d="M 58.5 129 L 60 131.5 L 58 130.5 L 58.5 129 Z " /><path fill="rgb(227,227,227)" stroke="rgb(227,227,227)" stroke-width="1" opacity="1" d="M 131.5 129 L 132 130.5 L 130 131.5 L 131.5 129 Z " /><path fill="rgb(227,227,227)" stroke="rgb(227,227,227)" stroke-width="1" opacity="1" d="M 161.5 129 L 170 129.5 L 161.5 130 L 161.5 129 Z " /><path fill="rgb(227,227,227)" stroke="rgb(227,227,227)" stroke-width="1" opacity="1" d="M 212.5 129 L 220.5 129 L 222 130.5 L 222 157.5 L 220.5 159 Q 212.5 161 210.5 157 L 209 157.5 L 212 155.5 L 212.5 158 L 221 158 L 221 130.5 L 220.5 130 L 212 130 L 211.5 133 Q 208 131 212.5 129 Z " /><path fill="rgb(227,227,227)" stroke="rgb(227,227,227)" stroke-width="1" opacity="1" d="M 226.5 129 L 235 129.5 L 226.5 130 L 225.5 131 L 226.5 129 Z " /><path fill="rgb(227,227,227)" stroke="rgb(227,227,227)" stroke-width="1" opacity="1" d="M 158.5 130 L 160.5 133 L 158.5 130 Z " /><path fill="rgb(227,227,227)" stroke="rgb(227,227,227)" stroke-width="1" opacity="1" d="M 237.5 130 L 235.5 133 L 237.5 130 Z " /><path fill="rgb(227,227,227)" stroke="rgb(227,227,227)" stroke-width="1" opacity="1" d="M 66.5 131 L 72 131.5 L 65.5 133 L 66.5 131 Z " /><path fill="rgb(227,227,227)" stroke="rgb(227,227,227)" stroke-width="1" opacity="1" d="M 118.5 131 Q 123.8 129.8 125 132.5 L 123.5 132 Q 117.5 133.3 118.5 131 Z " /><path fill="rgb(227,227,227)" stroke="rgb(227,227,227)" stroke-width="1" opacity="1" d="M 144.5 131 L 143.5 133 L 144.5 131 Z " /><path fill="rgb(227,227,227)" stroke="rgb(227,227,227)" stroke-width="1" opacity="1" d="M 193.5 132 L 192.5 134 L 193.5 132 Z " /><path fill="rgb(227,227,227)" stroke="rgb(227,227,227)" stroke-width="1" opacity="1" d="M 251.5 133 L 253 135.5 L 252 135.5 L 251.5 133 Z " /><path fill="rgb(227,227,227)" stroke="rgb(227,227,227)" stroke-width="1" opacity="1" d="M 81.5 134 L 82.5 136 L 81.5 134 Z " /><path fill="rgb(227,227,227)" stroke="rgb(227,227,227)" stroke-width="1" opacity="1" d="M 108.5 134 L 107.5 136 L 108.5 134 Z " /><path fill="rgb(227,227,227)" stroke="rgb(227,227,227)" stroke-width="1" opacity="1" d="M 141.5 134 L 140.5 136 L 141.5 134 Z " /><path fill="rgb(227,227,227)" stroke="rgb(227,227,227)" stroke-width="1" opacity="1" d="M 83.5 137 L 84.5 139 L 83.5 137 Z " /><path fill="rgb(227,227,227)" stroke="rgb(227,227,227)" stroke-width="1" opacity="1" d="M 106.5 137 L 105.5 139 L 106.5 137 Z " /><path fill="rgb(227,227,227)" stroke="rgb(227,227,227)" stroke-width="1" opacity="1" d="M 156.5 137 L 160 139.5 L 157.5 138 L 156.5 137 Z " /><path fill="rgb(227,227,227)" stroke="rgb(227,227,227)" stroke-width="1" opacity="1" d="M 202.5 137 L 204 137.5 L 200.5 140 L 202.5 137 Z " /><path fill="rgb(227,227,227)" stroke="rgb(227,227,227)" stroke-width="1" opacity="1" d="M 237.5 137 L 236 139.5 L 235.5 141 L 235 139.5 L 237.5 137 Z " /><path fill="rgb(227,227,227)" stroke="rgb(227,227,227)" stroke-width="1" opacity="1" d="M 241.5 137 L 242.5 139 L 241.5 137 Z " /><path fill="rgb(227,227,227)" stroke="rgb(227,227,227)" stroke-width="1" opacity="1" d="M 209.5 138 L 210.5 140 L 209.5 138 Z " /><path fill="rgb(227,227,227)" stroke="rgb(227,227,227)" stroke-width="1" opacity="1" d="M 253.5 138 L 254 157.5 L 252.5 159 L 244.5 159 L 244.5 158 L 253 158 L 253.5 138 Z " /><path fill="rgb(227,227,227)" stroke="rgb(227,227,227)" stroke-width="1" opacity="1" d="M 243.5 140 L 244 143.5 L 243 143.5 L 243.5 140 Z " /><path fill="rgb(227,227,227)" stroke="rgb(227,227,227)" stroke-width="1" opacity="1" d="M 138.5 141 L 139 146.5 L 138 146.5 L 138.5 141 Z " /><path fill="rgb(227,227,227)" stroke="rgb(227,227,227)" stroke-width="1" opacity="1" d="M 92.5 142 L 98 142.5 L 92.5 143 L 92.5 142 Z " /><path fill="rgb(227,227,227)" stroke="rgb(227,227,227)" stroke-width="1" opacity="1" d="M 148.5 142 L 149 145.5 L 148 145.5 L 148.5 142 Z " /><path fill="rgb(227,227,227)" stroke="rgb(227,227,227)" stroke-width="1" opacity="1" d="M 211.5 142 L 212 146.5 L 211 146.5 L 211.5 142 Z " /><path fill="rgb(227,227,227)" stroke="rgb(227,227,227)" stroke-width="1" opacity="1" d="M 189.5 146 L 190 148.5 L 189 148.5 L 189.5 146 Z " /><path fill="rgb(227,227,227)" stroke="rgb(227,227,227)" stroke-width="1" opacity="1" d="M 80.5 148 L 81 150.5 L 80 150.5 L 80.5 148 Z " /><path fill="rgb(227,227,227)" stroke="rgb(227,227,227)" stroke-width="1" opacity="1" d="M 91.5 148 L 99 148.5 L 91.5 149 L 91.5 148 Z " /><path fill="rgb(227,227,227)" stroke="rgb(227,227,227)" stroke-width="1" opacity="1" d="M 200.5 148 L 202.5 151 L 200.5 148 Z " /><path fill="rgb(227,227,227)" stroke="rgb(227,227,227)" stroke-width="1" opacity="1" d="M 210.5 148 L 208.5 151 L 210.5 148 Z " /><path fill="rgb(227,227,227)" stroke="rgb(227,227,227)" stroke-width="1" opacity="1" d="M 150.5 149 L 151.5 151 L 150.5 149 Z " /><path fill="rgb(227,227,227)" stroke="rgb(227,227,227)" stroke-width="1" opacity="1" d="M 190.5 150 L 192 152.5 L 190 151.5 L 190.5 150 Z " /><path fill="rgb(227,227,227)" stroke="rgb(227,227,227)" stroke-width="1" opacity="1" d="M 140.5 152 L 145.5 158 L 140.5 152 Z " /><path fill="rgb(227,227,227)" stroke="rgb(227,227,227)" stroke-width="1" opacity="1" d="M 192.5 154 L 194.5 157 L 192.5 154 Z " /><path fill="rgb(227,227,227)" stroke="rgb(227,227,227)" stroke-width="1" opacity="1" d="M 84.5 155 L 85.5 157 L 84.5 155 Z " /><path fill="rgb(227,227,227)" stroke="rgb(227,227,227)" stroke-width="1" opacity="1" d="M 176.5 155 L 178.5 158 L 176.5 155 Z " /><path fill="rgb(227,227,227)" stroke="rgb(227,227,227)" stroke-width="1" opacity="1" d="M 161.5 158 L 170 158.5 L 161.5 159 L 161.5 158 Z " /><path fill="rgb(227,227,227)" stroke="rgb(227,227,227)" stroke-width="1" opacity="1" d="M 226.5 158 L 235 158.5 L 226.5 159 L 226.5 158 Z " /><path fill="rgb(228,228,228)" stroke="rgb(228,228,228)" stroke-width="1" opacity="1" d="M 0 0 L 274 0 L 274 285 L 0 285 L 0 0 Z M 65 118 L 60 120 L 58 124 L 58 131 L 62 133 L 72 132 L 75 129 L 74 122 Q 72 117 65 118 Z M 121 118 L 119 119 Q 114 121 115 129 L 119 132 Q 123 131 125 133 Q 130 134 132 131 L 131 122 Q 129 117 121 118 Z M 90 119 L 83 122 L 80 126 Q 79 134 83 138 L 93 143 L 98 143 L 106 139 L 110 133 L 110 125 L 105 120 L 90 119 Z M 176 119 L 174 121 L 174 149 L 176 156 Q 179 161 189 159 L 189 151 L 185 151 L 185 121 L 184 119 L 176 119 Z M 149 129 L 145 131 Q 139 134 138 142 L 138 147 L 140 153 Q 142 158 149 159 Q 155 160 159 158 L 161 157 L 162 159 L 170 159 L 171 158 L 171 131 L 170 129 L 161 129 L 161 132 Q 157 128 149 129 Z M 200 129 L 194 132 L 189 140 Q 188 150 192 155 L 199 159 Q 206 161 210 158 Q 211 156 213 159 L 221 159 L 222 158 L 222 131 L 221 129 Q 212 127 211 131 Q 207 128 200 129 Z M 227 129 L 225 131 L 225 158 L 227 159 L 235 159 L 235 142 L 236 140 Q 236 137 241 137 L 243 140 L 244 145 L 243 147 L 244 148 L 244 159 L 253 159 L 254 158 L 254 139 L 251 131 L 247 129 L 238 130 L 235 132 L 235 129 L 227 129 Z M 82 147 L 80 149 L 81 153 L 90 159 L 101 159 L 108 155 L 110 152 L 110 147 L 103 147 L 102 148 L 82 147 Z " /><path fill="rgb(228,228,228)" stroke="rgb(228,228,228)" stroke-width="1" opacity="1" d="M 153.5 137 Q 158.3 137.3 160 140.5 L 161 145.5 L 158.5 150 L 152.5 151 Q 147.5 149.5 149 141.5 L 151.5 138 L 153.5 137 Z " /><path fill="rgb(228,228,228)" stroke="rgb(228,228,228)" stroke-width="1" opacity="1" d="M 204.5 137 Q 209.3 137.3 211 140.5 Q 212.8 149.3 207.5 151 Q 201 152 200 147.5 L 199 142.5 L 202.5 138 L 204.5 137 Z " /></svg>