<svg width="273" height="285" version="1.1" xmlns="http://www.w3.org/2000/svg" desc="Created with imagetracer.js version 1.2.6" ><path fill="rgb(42,42,42)" stroke="rgb(42,42,42)" stroke-width="1" opacity="1" d="M 40.5 114 Q 59.7 112.8 66 124.5 L 70 133.5 L 70 143.5 L 64 156 Q 67.8 155 69 157.5 Q 70.5 164.5 67.5 164 L 58.5 161 L 53.5 161 L 47.5 163 L 42.5 163 Q 30.5 161 25 152.5 L 21 143.5 L 21 133.5 Q 23.8 123.3 31.5 118 L 40.5 114 Z M 42 121 L 36 124 L 29 134 Q 27 146 33 151 L 41 155 L 48 155 L 42 142 L 49 141 L 52 148 L 57 151 Q 61 148 62 143 Q 63 131 58 127 Q 54 120 42 121 Z " /><path fill="rgb(42,42,42)" stroke="rgb(42,42,42)" stroke-width="1" opacity="1" d="M 144 121 L 152 121 L 152 129 L 160 129 L 160 136 L 152 136 L 152 153.5 Q 153.4 156.6 158.5 156 L 161 155 L 161 162 L 158.5 162 L 154.5 163 L 147 158.5 L 145 155.5 Q 146.3 150.7 144 149.5 L 144 121 Z " /><path fill="rgb(42,42,42)" stroke="rgb(42,42,42)" stroke-width="1" opacity="1" d="M 89.5 128 L 98.5 130 L 103 133.5 L 106 137.5 L 108 146.5 L 105 155.5 L 100.5 160 L 96.5 162 L 88.5 163 L 81.5 161 L 76 156.5 Q 71.5 152 73 141.5 Q 74.8 134.3 80.5 131 L 89.5 128 Z M 90 135 L 85 137 L 82 140 L 80 146 L 82 152 L 89 156 Q 95 156 98 153 L 100 149 Q 101 141 98 138 L 90 135 Z " /><path fill="rgb(42,42,42)" stroke="rgb(42,42,42)" stroke-width="1" opacity="1" d="M 124.5 128 Q 135.3 128.3 139 135.5 L 141 142.5 L 141 162 L 133 162 L 133 139.5 Q 131.4 134.1 123.5 135 L 120 137.5 L 118 141.5 L 118 162 L 111.5 162 L 111 161.5 L 111 129 L 118 129 L 118 131.5 L 120.5 130 L 124.5 128 Z " /><path fill="rgb(42,42,42)" stroke="rgb(42,42,42)" stroke-width="1" opacity="1" d="M 179.5 128 Q 190.5 129 195 136.5 Q 198.1 140.9 197 149.5 L 192 159 L 186.5 162 L 177.5 163 Q 169 161.5 165 155.5 L 163 152.5 L 162 144.5 L 164 137.5 L 167.5 133 L 173.5 129 Q 178.3 130.3 179.5 128 Z M 180 135 L 176 136 L 170 143 Q 169 150 172 153 L 179 156 L 186 154 L 190 148 L 188 140 Q 185 136 180 135 Z " /><path fill="rgb(227,227,227)" stroke="rgb(227,227,227)" stroke-width="1" opacity="1" d="M 30.5 118 L 26.5 123 L 30.5 118 Z " /><path fill="rgb(227,227,227)" stroke="rgb(227,227,227)" stroke-width="1" opacity="1" d="M 61.5 119 L 64.5 123 L 61.5 119 Z " /><path fill="rgb(227,227,227)" stroke="rgb(227,227,227)" stroke-width="1" opacity="1" d="M 144.5 120 L 152 120.5 L 144.5 121 L 144.5 120 Z " /><path fill="rgb(227,227,227)" stroke="rgb(227,227,227)" stroke-width="1" opacity="1" d="M 41.5 121 L 49 121.5 L 41.5 122 L 41.5 121 Z " /><path fill="rgb(227,227,227)" stroke="rgb(227,227,227)" stroke-width="1" opacity="1" d="M 38.5 122 L 40 122.5 L 37.5 124 L 38.5 122 Z " /><path fill="rgb(227,227,227)" stroke="rgb(227,227,227)" stroke-width="1" opacity="1" d="M 35.5 124 L 32.5 128 L 35.5 124 Z " /><path fill="rgb(227,227,227)" stroke="rgb(227,227,227)" stroke-width="1" opacity="1" d="M 55.5 124 L 57.5 127 L 55.5 124 Z " /><path fill="rgb(227,227,227)" stroke="rgb(227,227,227)" stroke-width="1" opacity="1" d="M 86.5 128 L 89 128.5 L 86.5 129 L 86.5 128 Z " /><path fill="rgb(227,227,227)" stroke="rgb(227,227,227)" stroke-width="1" opacity="1" d="M 91.5 128 L 95 128.5 L 91.5 129 L 91.5 128 Z " /><path fill="rgb(227,227,227)" stroke="rgb(227,227,227)" stroke-width="1" opacity="1" d="M 127.5 128 L 130 128.5 L 127.5 129 L 127.5 128 Z " /><path fill="rgb(227,227,227)" stroke="rgb(227,227,227)" stroke-width="1" opacity="1" d="M 175.5 128 L 179 128.5 L 175.5 129 L 175.5 128 Z " /><path fill="rgb(227,227,227)" stroke="rgb(227,227,227)" stroke-width="1" opacity="1" d="M 181.5 128 L 184 128.5 L 181.5 129 L 181.5 128 Z " /><path fill="rgb(227,227,227)" stroke="rgb(227,227,227)" stroke-width="1" opacity="1" d="M 160.5 129 L 161 135.5 L 160 135.5 L 160.5 129 Z " /><path fill="rgb(227,227,227)" stroke="rgb(227,227,227)" stroke-width="1" opacity="1" d="M 99.5 130 L 100.5 132 L 99.5 130 Z " /><path fill="rgb(227,227,227)" stroke="rgb(227,227,227)" stroke-width="1" opacity="1" d="M 134.5 130 L 137.5 134 L 134.5 130 Z " /><path fill="rgb(227,227,227)" stroke="rgb(227,227,227)" stroke-width="1" opacity="1" d="M 170.5 130 L 168.5 133 L 170.5 130 Z " /><path fill="rgb(227,227,227)" stroke="rgb(227,227,227)" stroke-width="1" opacity="1" d="M 79.5 131 L 75.5 136 L 79.5 131 Z " /><path fill="rgb(227,227,227)" stroke="rgb(227,227,227)" stroke-width="1" opacity="1" d="M 190.5 131 L 194.5 136 L 190.5 131 Z " /><path fill="rgb(227,227,227)" stroke="rgb(227,227,227)" stroke-width="1" opacity="1" d="M 61.5 134 L 62 137.5 L 61 137.5 L 61.5 134 Z " /><path fill="rgb(227,227,227)" stroke="rgb(227,227,227)" stroke-width="1" opacity="1" d="M 103.5 134 L 105.5 137 L 103.5 134 Z " /><path fill="rgb(227,227,227)" stroke="rgb(227,227,227)" stroke-width="1" opacity="1" d="M 165.5 135 L 164.5 137 L 165.5 135 Z " /><path fill="rgb(227,227,227)" stroke="rgb(227,227,227)" stroke-width="1" opacity="1" d="M 121.5 136 L 120.5 138 L 121.5 136 Z " /><path fill="rgb(227,227,227)" stroke="rgb(227,227,227)" stroke-width="1" opacity="1" d="M 175.5 136 L 177 136.5 L 174.5 138 L 175.5 136 Z " /><path fill="rgb(227,227,227)" stroke="rgb(227,227,227)" stroke-width="1" opacity="1" d="M 131.5 138 L 133 140.5 L 132 140.5 L 131.5 138 Z " /><path fill="rgb(227,227,227)" stroke="rgb(227,227,227)" stroke-width="1" opacity="1" d="M 61.5 139 L 62 142.5 L 61 142.5 L 61.5 139 Z " /><path fill="rgb(227,227,227)" stroke="rgb(227,227,227)" stroke-width="1" opacity="1" d="M 140.5 139 L 141 141.5 L 140 141.5 L 140.5 139 Z " /><path fill="rgb(227,227,227)" stroke="rgb(227,227,227)" stroke-width="1" opacity="1" d="M 47.5 140 L 50 141.5 L 48.5 141 L 47.5 140 Z " /><path fill="rgb(227,227,227)" stroke="rgb(227,227,227)" stroke-width="1" opacity="1" d="M 107.5 141 L 108 144.5 L 107 144.5 L 107.5 141 Z " /><path fill="rgb(227,227,227)" stroke="rgb(227,227,227)" stroke-width="1" opacity="1" d="M 162.5 141 L 163 143.5 L 162 143.5 L 162.5 141 Z " /><path fill="rgb(227,227,227)" stroke="rgb(227,227,227)" stroke-width="1" opacity="1" d="M 72.5 142 L 73 148.5 L 72 148.5 L 72.5 142 Z " /><path fill="rgb(227,227,227)" stroke="rgb(227,227,227)" stroke-width="1" opacity="1" d="M 189.5 144 L 190 147.5 L 189 147.5 L 189.5 144 Z " /><path fill="rgb(227,227,227)" stroke="rgb(227,227,227)" stroke-width="1" opacity="1" d="M 197.5 144 L 198 146.5 L 197 146.5 L 197.5 144 Z " /><path fill="rgb(227,227,227)" stroke="rgb(227,227,227)" stroke-width="1" opacity="1" d="M 52.5 147 L 55.5 151 L 52.5 147 Z " /><path fill="rgb(227,227,227)" stroke="rgb(227,227,227)" stroke-width="1" opacity="1" d="M 59.5 147 L 58.5 149 L 59.5 147 Z " /><path fill="rgb(227,227,227)" stroke="rgb(227,227,227)" stroke-width="1" opacity="1" d="M 107.5 147 L 108 149.5 L 107 149.5 L 107.5 147 Z " /><path fill="rgb(227,227,227)" stroke="rgb(227,227,227)" stroke-width="1" opacity="1" d="M 44.5 149 L 48 153.5 L 45 151.5 L 44.5 149 Z " /><path fill="rgb(227,227,227)" stroke="rgb(227,227,227)" stroke-width="1" opacity="1" d="M 33.5 150 L 34.5 152 L 33.5 150 Z " /><path fill="rgb(227,227,227)" stroke="rgb(227,227,227)" stroke-width="1" opacity="1" d="M 144.5 150 L 145 153.5 L 144 153.5 L 144.5 150 Z " /><path fill="rgb(227,227,227)" stroke="rgb(227,227,227)" stroke-width="1" opacity="1" d="M 73.5 151 L 75 153.5 L 73 152.5 L 73.5 151 Z " /><path fill="rgb(227,227,227)" stroke="rgb(227,227,227)" stroke-width="1" opacity="1" d="M 172.5 152 L 173.5 154 L 172.5 152 Z " /><path fill="rgb(227,227,227)" stroke="rgb(227,227,227)" stroke-width="1" opacity="1" d="M 84.5 153 L 85.5 155 L 84.5 153 Z " /><path fill="rgb(227,227,227)" stroke="rgb(227,227,227)" stroke-width="1" opacity="1" d="M 152.5 153 L 153.5 155 L 152.5 153 Z " /><path fill="rgb(227,227,227)" stroke="rgb(227,227,227)" stroke-width="1" opacity="1" d="M 163.5 153 L 164.5 155 L 163.5 153 Z " /><path fill="rgb(227,227,227)" stroke="rgb(227,227,227)" stroke-width="1" opacity="1" d="M 26.5 154 L 30.5 159 L 26.5 154 Z " /><path fill="rgb(227,227,227)" stroke="rgb(227,227,227)" stroke-width="1" opacity="1" d="M 161.5 154 L 162 163 L 158 162.5 L 161 162 L 161.5 154 Z " /><path fill="rgb(227,227,227)" stroke="rgb(227,227,227)" stroke-width="1" opacity="1" d="M 88.5 155 L 92 155.5 L 88.5 156 L 88.5 155 Z " /><path fill="rgb(227,227,227)" stroke="rgb(227,227,227)" stroke-width="1" opacity="1" d="M 178.5 155 L 182 155.5 L 178.5 156 L 178.5 155 Z " /><path fill="rgb(227,227,227)" stroke="rgb(227,227,227)" stroke-width="1" opacity="1" d="M 194.5 155 L 192.5 158 L 194.5 155 Z " /><path fill="rgb(227,227,227)" stroke="rgb(227,227,227)" stroke-width="1" opacity="1" d="M 68.5 156 Q 71.3 155.4 70 161.5 L 69 161.5 L 68.5 156 Z " /><path fill="rgb(227,227,227)" stroke="rgb(227,227,227)" stroke-width="1" opacity="1" d="M 145.5 156 L 146.5 158 L 145.5 156 Z " /><path fill="rgb(227,227,227)" stroke="rgb(227,227,227)" stroke-width="1" opacity="1" d="M 78.5 158 L 80.5 161 L 78.5 158 Z " /><path fill="rgb(227,227,227)" stroke="rgb(227,227,227)" stroke-width="1" opacity="1" d="M 190.5 159 L 189.5 161 L 190.5 159 Z " /><path fill="rgb(227,227,227)" stroke="rgb(227,227,227)" stroke-width="1" opacity="1" d="M 39.5 162 L 42 162.5 L 39.5 163 L 39.5 162 Z " /><path fill="rgb(227,227,227)" stroke="rgb(227,227,227)" stroke-width="1" opacity="1" d="M 48.5 162 L 51 162.5 L 48.5 163 L 48.5 162 Z " /><path fill="rgb(227,227,227)" stroke="rgb(227,227,227)" stroke-width="1" opacity="1" d="M 85.5 162 L 88 162.5 L 85.5 163 L 85.5 162 Z " /><path fill="rgb(227,227,227)" stroke="rgb(227,227,227)" stroke-width="1" opacity="1" d="M 92.5 162 L 95 162.5 L 92.5 163 L 92.5 162 Z " /><path fill="rgb(227,227,227)" stroke="rgb(227,227,227)" stroke-width="1" opacity="1" d="M 64.5 163 L 67 163.5 L 64.5 164 L 64.5 163 Z " /><path fill="rgb(228,228,228)" stroke="rgb(228,228,228)" stroke-width="1" opacity="1" d="M 0 0 L 273 0 L 273 285 L 0 285 L 0 0 Z M 40 114 L 31 118 Q 24 123 21 133 Q 19 148 26 155 Q 31 161 40 163 Q 50 165 56 161 L 65 164 L 69 164 L 70 162 Q 73 153 65 156 L 70 145 Q 72 129 65 123 Q 60 117 52 114 L 40 114 Z M 144 120 L 144 154 L 145 157 Q 149 165 162 163 L 162 154 L 158 156 L 152 153 L 152 136 L 161 136 L 161 129 L 152 129 L 152 120 L 144 120 Z M 87 128 L 80 131 Q 74 135 72 143 Q 71 151 75 156 Q 78 161 86 163 Q 95 164 100 161 Q 106 157 108 150 Q 109 141 106 137 Q 102 127 87 128 Z M 124 128 L 122 129 L 118 132 L 118 129 L 111 129 L 111 162 L 112 162 L 118 162 L 118 144 L 120 139 L 126 135 L 131 137 L 133 142 L 133 162 L 141 162 L 141 140 L 138 134 Q 134 127 124 128 Z M 176 128 L 171 130 Q 164 134 162 142 L 163 154 Q 167 161 176 163 Q 185 164 190 161 L 195 156 L 198 147 L 195 136 Q 190 127 176 128 Z " /><path fill="rgb(228,228,228)" stroke="rgb(228,228,228)" stroke-width="1" opacity="1" d="M 40.5 122 Q 55.2 119.8 59 128.5 L 62 138.5 L 60 146.5 L 56.5 151 Q 51.1 146.9 48.5 140 L 41 142.5 Q 42.7 150.3 48 154.5 L 41.5 155 L 32 148.5 Q 28.1 144.4 29 135.5 Q 30.8 127.9 36.5 124 L 40.5 122 Z " /><path fill="rgb(228,228,228)" stroke="rgb(228,228,228)" stroke-width="1" opacity="1" d="M 87.5 136 Q 95.5 135 98 139.5 L 100 147.5 L 95.5 154 L 86.5 155 L 83 153 L 81 149.5 L 81 142.5 L 83 138 L 87.5 136 Z " /><path fill="rgb(228,228,228)" stroke="rgb(228,228,228)" stroke-width="1" opacity="1" d="M 177.5 136 Q 184.4 135.3 187 138 Q 190 141.3 189 149.5 L 186.5 153 Q 183.9 156.4 176.5 155 L 172 151.5 L 170 144.5 L 173.5 138 L 177.5 136 Z " /></svg>