<svg width="273" height="285" version="1.1" xmlns="http://www.w3.org/2000/svg" desc="Created with imagetracer.js version 1.2.6" ><path fill="rgb(209,209,209)" stroke="rgb(209,209,209)" stroke-width="1" opacity="1" d="M 120.5 116 L 220 116.5 L 120.5 117 L 120.5 116 Z " /><path fill="rgb(209,209,209)" stroke="rgb(209,209,209)" stroke-width="1" opacity="1" d="M 236.5 118 L 239.5 122 L 236.5 118 Z " /><path fill="rgb(209,209,209)" stroke="rgb(209,209,209)" stroke-width="1" opacity="1" d="M 232.5 121 L 234.5 124 L 232.5 121 Z " /><path fill="rgb(209,209,209)" stroke="rgb(209,209,209)" stroke-width="1" opacity="1" d="M 156.5 126 L 157 151.5 L 156 151.5 L 156.5 126 Z " /><path fill="rgb(209,209,209)" stroke="rgb(209,209,209)" stroke-width="1" opacity="1" d="M 118.5 127 L 117.5 129 L 118.5 127 Z " /><path fill="rgb(209,209,209)" stroke="rgb(209,209,209)" stroke-width="1" opacity="1" d="M 142.5 127 L 143 150.5 L 142 150.5 L 142.5 127 Z " /><path fill="rgb(209,209,209)" stroke="rgb(209,209,209)" stroke-width="1" opacity="1" d="M 220.5 127 L 221.5 129 L 220.5 127 Z " /><path fill="rgb(209,209,209)" stroke="rgb(209,209,209)" stroke-width="1" opacity="1" d="M 0.5 129 L 8 129.5 L 0.5 130 L 0.5 129 Z " /><path fill="rgb(209,209,209)" stroke="rgb(209,209,209)" stroke-width="1" opacity="1" d="M 207.5 130 L 208 136.5 L 207 136.5 L 207.5 130 Z " /><path fill="rgb(209,209,209)" stroke="rgb(209,209,209)" stroke-width="1" opacity="1" d="M 133.5 138 L 134.5 140 L 133.5 138 Z " /><path fill="rgb(209,209,209)" stroke="rgb(209,209,209)" stroke-width="1" opacity="1" d="M 207.5 141 L 212.5 147 L 208 143.5 L 207.5 152 L 207.5 141 Z " /><path fill="rgb(209,209,209)" stroke="rgb(209,209,209)" stroke-width="1" opacity="1" d="M 215.5 142 L 216.5 144 L 215.5 142 Z " /><path fill="rgb(209,209,209)" stroke="rgb(209,209,209)" stroke-width="1" opacity="1" d="M 0.5 143 L 5 143.5 L 0.5 144 L 0.5 143 Z " /><path fill="rgb(209,209,209)" stroke="rgb(209,209,209)" stroke-width="1" opacity="1" d="M 116.5 147 L 129 147.5 L 116.5 148 L 116.5 147 Z " /><path fill="rgb(209,209,209)" stroke="rgb(209,209,209)" stroke-width="1" opacity="1" d="M 162.5 147 L 174 147.5 L 162.5 148 L 162.5 147 Z " /><path fill="rgb(209,209,209)" stroke="rgb(209,209,209)" stroke-width="1" opacity="1" d="M 134.5 149 L 133.5 151 L 134.5 149 Z " /><path fill="rgb(209,209,209)" stroke="rgb(209,209,209)" stroke-width="1" opacity="1" d="M 104.5 154 L 106.5 157 L 104.5 154 Z " /><path fill="rgb(209,209,209)" stroke="rgb(209,209,209)" stroke-width="1" opacity="1" d="M 238.5 157 L 235.5 161 L 238.5 157 Z " /><path fill="rgb(209,209,209)" stroke="rgb(209,209,209)" stroke-width="1" opacity="1" d="M 119.5 161 L 217 161.5 L 119.5 162 L 119.5 161 Z " /><path fill="rgb(228,228,228)" stroke="rgb(228,228,228)" stroke-width="1" opacity="1" d="M 0 0 L 273 0 L 273 285 L 0 285 L 0 158 L 8 158 L 8 149 L 0 149 L 0 144 L 5 144 L 5 135 Q -2.5 137.5 0 130 L 8 130 L 8 121 L 0.5 121 L 0 120.5 L 0 0 Z M 116 112 L 106 116 Q 97 122 94 134 Q 92 148 98 155 Q 104 163 116 166 L 225 166 L 236 161 Q 243 156 245 146 L 245 133 L 240 122 Q 234 115 224 112 L 116 112 Z " /><path fill="rgb(228,228,228)" stroke="rgb(228,228,228)" stroke-width="1" opacity="1" d="M 115.5 117 L 223.5 117 Q 232.5 119.4 237 126.5 L 240 136.5 L 240 142.5 Q 238.2 152.2 231.5 157 L 222.5 161 L 115.5 161 Q 107.2 158.9 103 152.5 Q 98.6 146.9 99 136.5 Q 100.7 125.2 108.5 120 L 115.5 117 Z M 121 126 L 119 127 Q 115 129 116 137 L 121 140 L 130 142 L 131 144 L 130 147 L 116 147 L 116 152 L 132 152 L 134 151 L 136 148 L 135 140 L 132 137 L 123 135 L 121 133 L 125 130 L 135 130 L 135 126 L 121 126 Z M 144 126 L 142 128 L 142 151 Q 143 153 148 152 L 148 127 Q 148 125 144 126 Z M 156 126 L 156 152 L 174 152 L 174 147 L 162 147 L 162 127 L 162 126 L 156 126 Z M 172 126 L 181 150 L 181 152 L 188 152 L 198 127 L 192 126 L 187 142 L 185 145 L 178 128 L 178 126 L 172 126 Z M 202 126 L 202 152 L 208 152 L 208 144 L 218 152 L 224 152 L 217 144 L 214 142 L 219 141 L 222 139 L 224 134 L 222 129 L 219 126 L 202 126 Z " /><path fill="rgb(228,228,228)" stroke="rgb(228,228,228)" stroke-width="1" opacity="1" d="M 208 130 Q 214.8 128.9 218 132.5 L 216.5 136 L 208 137 L 208 130 Z " /><path fill="rgb(139,139,139)" stroke="rgb(139,139,139)" stroke-width="1" opacity="1" d="M 117.5 112 L 122 112.5 L 117.5 113 L 117.5 112 Z " /><path fill="rgb(139,139,139)" stroke="rgb(139,139,139)" stroke-width="1" opacity="1" d="M 218.5 112 L 223 112.5 L 218.5 113 L 218.5 112 Z " /><path fill="rgb(139,139,139)" stroke="rgb(139,139,139)" stroke-width="1" opacity="1" d="M 104.5 117 L 103.5 119 L 104.5 117 Z " /><path fill="rgb(139,139,139)" stroke="rgb(139,139,139)" stroke-width="1" opacity="1" d="M 107.5 120 L 106.5 122 L 107.5 120 Z " /><path fill="rgb(139,139,139)" stroke="rgb(139,139,139)" stroke-width="1" opacity="1" d="M 7.5 121 L 8 128.5 L 7 128.5 L 7.5 121 Z " /><path fill="rgb(139,139,139)" stroke="rgb(139,139,139)" stroke-width="1" opacity="1" d="M 100.5 121 L 99.5 123 L 100.5 121 Z " /><path fill="rgb(139,139,139)" stroke="rgb(139,139,139)" stroke-width="1" opacity="1" d="M 104.5 123 L 103.5 125 L 104.5 123 Z " /><path fill="rgb(139,139,139)" stroke="rgb(139,139,139)" stroke-width="1" opacity="1" d="M 235.5 124 L 236.5 126 L 235.5 124 Z " /><path fill="rgb(139,139,139)" stroke="rgb(139,139,139)" stroke-width="1" opacity="1" d="M 134.5 126 L 135 129.5 L 134 129.5 L 134.5 126 Z " /><path fill="rgb(139,139,139)" stroke="rgb(139,139,139)" stroke-width="1" opacity="1" d="M 147.5 126 L 148 151.5 L 147 151.5 L 147.5 126 Z " /><path fill="rgb(139,139,139)" stroke="rgb(139,139,139)" stroke-width="1" opacity="1" d="M 161.5 126 L 162 147.5 L 161 147.5 L 161.5 126 Z " /><path fill="rgb(139,139,139)" stroke="rgb(139,139,139)" stroke-width="1" opacity="1" d="M 202.5 126 L 203 151.5 L 202 151.5 L 202.5 126 Z " /><path fill="rgb(139,139,139)" stroke="rgb(139,139,139)" stroke-width="1" opacity="1" d="M 244.5 133 L 245 136.5 L 244 136.5 L 244.5 133 Z " /><path fill="rgb(139,139,139)" stroke="rgb(139,139,139)" stroke-width="1" opacity="1" d="M 94.5 135 L 95 142.5 L 94 142.5 L 94.5 135 Z " /><path fill="rgb(139,139,139)" stroke="rgb(139,139,139)" stroke-width="1" opacity="1" d="M 117.5 137 L 118.5 139 L 117.5 137 Z " /><path fill="rgb(139,139,139)" stroke="rgb(139,139,139)" stroke-width="1" opacity="1" d="M 244.5 142 L 245 144.5 L 244 144.5 L 244.5 142 Z " /><path fill="rgb(139,139,139)" stroke="rgb(139,139,139)" stroke-width="1" opacity="1" d="M 130.5 146 L 129.5 148 L 130.5 146 Z " /><path fill="rgb(139,139,139)" stroke="rgb(139,139,139)" stroke-width="1" opacity="1" d="M 213.5 147 L 217.5 152 L 213.5 147 Z " /><path fill="rgb(139,139,139)" stroke="rgb(139,139,139)" stroke-width="1" opacity="1" d="M 116.5 148 L 117 151.5 L 116 151.5 L 116.5 148 Z " /><path fill="rgb(139,139,139)" stroke="rgb(139,139,139)" stroke-width="1" opacity="1" d="M 7.5 149 L 8 156.5 Q 6.5 159.5 0.5 158 L 0.5 157 L 7 157 L 7.5 149 Z " /><path fill="rgb(139,139,139)" stroke="rgb(139,139,139)" stroke-width="1" opacity="1" d="M 235.5 153 L 232.5 157 L 235.5 153 Z " /><path fill="rgb(139,139,139)" stroke="rgb(139,139,139)" stroke-width="1" opacity="1" d="M 217.5 161 L 221 161.5 L 217.5 162 L 217.5 161 Z " /><path fill="rgb(139,139,139)" stroke="rgb(139,139,139)" stroke-width="1" opacity="1" d="M 116.5 165 L 122 165.5 L 116.5 166 L 116.5 165 Z " /><path fill="rgb(139,139,139)" stroke="rgb(139,139,139)" stroke-width="1" opacity="1" d="M 221.5 165 L 224 165.5 L 221.5 166 L 221.5 165 Z " /><path fill="rgb(60,60,60)" stroke="rgb(60,60,60)" stroke-width="1" opacity="1" d="M 122.5 112 L 218 112.5 L 122.5 113 L 122.5 112 Z " /><path fill="rgb(60,60,60)" stroke="rgb(60,60,60)" stroke-width="1" opacity="1" d="M 235.5 118 L 239.5 123 L 235.5 118 Z " /><path fill="rgb(60,60,60)" stroke="rgb(60,60,60)" stroke-width="1" opacity="1" d="M 102.5 119 L 101.5 121 L 102.5 119 Z " /><path fill="rgb(60,60,60)" stroke="rgb(60,60,60)" stroke-width="1" opacity="1" d="M 123.5 126 L 134 126.5 L 123.5 127 L 123.5 126 Z " /><path fill="rgb(60,60,60)" stroke="rgb(60,60,60)" stroke-width="1" opacity="1" d="M 143.5 126 L 147 126.5 L 143.5 127 L 143.5 126 Z " /><path fill="rgb(60,60,60)" stroke="rgb(60,60,60)" stroke-width="1" opacity="1" d="M 157.5 126 L 161 126.5 L 157.5 127 L 157.5 126 Z " /><path fill="rgb(60,60,60)" stroke="rgb(60,60,60)" stroke-width="1" opacity="1" d="M 173.5 126 Q 177.3 125.3 178 127.5 L 176.5 127 Q 172.5 127.7 173.5 126 Z " /><path fill="rgb(60,60,60)" stroke="rgb(60,60,60)" stroke-width="1" opacity="1" d="M 193.5 126 L 197 126.5 L 193.5 127 L 193.5 126 Z " /><path fill="rgb(60,60,60)" stroke="rgb(60,60,60)" stroke-width="1" opacity="1" d="M 203.5 126 L 216 126.5 L 203.5 127 L 203.5 126 Z " /><path fill="rgb(60,60,60)" stroke="rgb(60,60,60)" stroke-width="1" opacity="1" d="M 119.5 127 L 117.5 130 L 119.5 127 Z " /><path fill="rgb(60,60,60)" stroke="rgb(60,60,60)" stroke-width="1" opacity="1" d="M 219.5 127 L 221.5 130 L 219.5 127 Z " /><path fill="rgb(60,60,60)" stroke="rgb(60,60,60)" stroke-width="1" opacity="1" d="M 116.5 131 L 117 134.5 L 116 134.5 L 116.5 131 Z " /><path fill="rgb(60,60,60)" stroke="rgb(60,60,60)" stroke-width="1" opacity="1" d="M 0.5 135 Q 4.3 134.3 5 136.5 L 4.5 143 L 4 136 Q -0.4 137 0.5 135 Z " /><path fill="rgb(60,60,60)" stroke="rgb(60,60,60)" stroke-width="1" opacity="1" d="M 221.5 137 L 220.5 139 L 221.5 137 Z " /><path fill="rgb(60,60,60)" stroke="rgb(60,60,60)" stroke-width="1" opacity="1" d="M 240.5 137 L 241 141.5 L 240 141.5 L 240.5 137 Z " /><path fill="rgb(60,60,60)" stroke="rgb(60,60,60)" stroke-width="1" opacity="1" d="M 244.5 137 L 245 141.5 L 244 141.5 L 244.5 137 Z " /><path fill="rgb(60,60,60)" stroke="rgb(60,60,60)" stroke-width="1" opacity="1" d="M 133.5 139 L 134.5 141 L 133.5 139 Z " /><path fill="rgb(60,60,60)" stroke="rgb(60,60,60)" stroke-width="1" opacity="1" d="M 207.5 140 L 209.5 143 L 207.5 140 Z " /><path fill="rgb(60,60,60)" stroke="rgb(60,60,60)" stroke-width="1" opacity="1" d="M 213 140 L 216 140.5 L 214 141.5 L 223 150.5 L 223 152 L 218 151.5 L 222 150.5 L 213 141.5 L 213 140 Z " /><path fill="rgb(60,60,60)" stroke="rgb(60,60,60)" stroke-width="1" opacity="1" d="M 129.5 141 L 130.5 143 L 129.5 141 Z " /><path fill="rgb(60,60,60)" stroke="rgb(60,60,60)" stroke-width="1" opacity="1" d="M 173.5 148 L 174 150.5 L 172.5 152 L 157.5 152 L 157.5 151 L 172.5 151 L 173.5 148 Z " /><path fill="rgb(60,60,60)" stroke="rgb(60,60,60)" stroke-width="1" opacity="1" d="M 0.5 149 L 7 149.5 L 0.5 150 L 0.5 149 Z " /><path fill="rgb(60,60,60)" stroke="rgb(60,60,60)" stroke-width="1" opacity="1" d="M 117.5 151 L 130 151.5 L 117.5 152 L 117.5 151 Z " /><path fill="rgb(60,60,60)" stroke="rgb(60,60,60)" stroke-width="1" opacity="1" d="M 143.5 151 L 147 151.5 L 143.5 152 L 143.5 151 Z " /><path fill="rgb(60,60,60)" stroke="rgb(60,60,60)" stroke-width="1" opacity="1" d="M 182.5 151 L 188 151.5 L 182.5 152 L 182.5 151 Z " /><path fill="rgb(60,60,60)" stroke="rgb(60,60,60)" stroke-width="1" opacity="1" d="M 203.5 151 L 207 151.5 L 203.5 152 L 203.5 151 Z " /><path fill="rgb(60,60,60)" stroke="rgb(60,60,60)" stroke-width="1" opacity="1" d="M 239.5 155 L 238.5 157 L 239.5 155 Z " /><path fill="rgb(60,60,60)" stroke="rgb(60,60,60)" stroke-width="1" opacity="1" d="M 100.5 156 L 103.5 160 L 100.5 156 Z " /><path fill="rgb(60,60,60)" stroke="rgb(60,60,60)" stroke-width="1" opacity="1" d="M 235.5 159 L 234.5 161 L 235.5 159 Z " /><path fill="rgb(60,60,60)" stroke="rgb(60,60,60)" stroke-width="1" opacity="1" d="M 122.5 165 L 221 165.5 L 122.5 166 L 122.5 165 Z " /><path fill="rgb(17,17,17)" stroke="rgb(17,17,17)" stroke-width="1" opacity="1" d="M 115.5 113 L 224.5 113 Q 235.4 116.1 241 124.5 Q 245.9 132.1 244 146.5 Q 241.8 154.3 236.5 159 L 225.5 165 L 114.5 165 Q 104.3 162.3 99 154.5 Q 93 147.5 95 132.5 Q 97.8 122.3 105.5 117 L 115.5 113 Z M 117 116 L 109 119 Q 101 123 99 133 L 99 147 L 104 156 L 117 162 L 223 162 L 232 158 Q 239 153 241 142 L 240 132 L 238 127 Q 233 118 223 116 L 117 116 Z " /><path fill="rgb(17,17,17)" stroke="rgb(17,17,17)" stroke-width="1" opacity="1" d="M 0 121 L 7 121 L 7 129 L 0 129 L 0 121 Z " /><path fill="rgb(17,17,17)" stroke="rgb(17,17,17)" stroke-width="1" opacity="1" d="M 120.5 127 L 133.5 127 L 134 130 L 122.5 130 L 120 132.5 L 122.5 136 L 131.5 138 L 135 141.5 L 136 145.5 L 134 150 L 131.5 151 L 117 151 L 117.5 148 L 129.5 148 L 132 144.5 L 129.5 141 Q 121 141 117 136.5 Q 115.5 128.5 120.5 127 Z " /><path fill="rgb(17,17,17)" stroke="rgb(17,17,17)" stroke-width="1" opacity="1" d="M 143 127 L 147 127.5 L 147 151 L 143 150.5 L 143 127 Z " /><path fill="rgb(17,17,17)" stroke="rgb(17,17,17)" stroke-width="1" opacity="1" d="M 157 127 L 161 127.5 L 161 148 L 172.5 148 L 173 151 L 157 151 L 157 127 Z " /><path fill="rgb(17,17,17)" stroke="rgb(17,17,17)" stroke-width="1" opacity="1" d="M 173 127 Q 176.8 126 178 128.5 L 184 147 Q 187 148.3 186 144.5 L 192 127 L 197 127.5 L 188 151 Q 182.6 152.5 181 149.5 L 173 127 Z " /><path fill="rgb(17,17,17)" stroke="rgb(17,17,17)" stroke-width="1" opacity="1" d="M 203 127 L 218.5 127 L 222 130.5 L 223 134.5 L 218.5 140 Q 212.4 138.8 213 141.5 L 221.5 151 L 217.5 151 L 210 143.5 L 207.5 140 L 207 151 L 203 150.5 L 203 127 Z M 207 130 L 207 137 L 217 137 L 219 134 L 218 132 L 217 130 L 207 130 Z " /><path fill="rgb(17,17,17)" stroke="rgb(17,17,17)" stroke-width="1" opacity="1" d="M 0 136 L 4 136 L 4 143 L 0 143 L 0 136 Z " /><path fill="rgb(17,17,17)" stroke="rgb(17,17,17)" stroke-width="1" opacity="1" d="M 0 150 L 7 150 L 7 157 L 0 157 L 0 150 Z " /></svg>