<?xml version="1.0" standalone="no"?>
<!DOCTYPE svg PUBLIC "-//W3C//DTD SVG 20010904//EN"
 "http://www.w3.org/TR/2001/REC-SVG-20010904/DTD/svg10.dtd">
<svg version="1.0" xmlns="http://www.w3.org/2000/svg"
 width="1343.000000pt" height="452.000000pt" viewBox="0 0 1343.000000 452.000000"
 preserveAspectRatio="xMidYMid meet">
<metadata>
Created by potrace 1.16, written by Peter Selinger 2001-2019
</metadata>
<g transform="translate(0.000000,452.000000) scale(0.100000,-0.100000)"
fill="#000000" stroke="none">
<path d="M150 2230 l0 -2160 405 0 405 0 -5 97 c-3 54 -19 467 -36 918 -22
606 -44 1041 -84 1665 -57 879 -60 928 -48 916 4 -4 136 -813 293 -1799 l286
-1792 547 -3 547 -2 0 2160 0 2160 -406 0 -407 0 7 -137 c3 -76 18 -480 31
-898 25 -737 28 -786 95 -1615 38 -470 72 -872 75 -892 4 -27 1 -38 -7 -38 -9
0 -97 504 -307 1773 -162 974 -296 1780 -299 1790 -4 16 -39 17 -548 17 l-544
0 0 -2160z"/>
<path d="M2971 3658 c-303 -2671 -401 -3543 -401 -3564 l0 -24 400 0 399 0 5
33 c3 17 19 230 36 472 17 242 33 455 36 473 l5 32 187 0 187 0 33 -457 c18
-252 36 -479 39 -505 l6 -48 413 0 413 0 -5 32 c-5 32 -347 2910 -454 3813
-28 237 -53 440 -55 453 l-5 22 -578 0 -577 0 -84 -732z m673 40 c3 -18 37
-413 76 -878 39 -465 74 -873 77 -907 l6 -63 -167 0 -166 0 0 28 c0 38 139
1780 146 1820 3 17 9 32 14 32 5 0 11 -15 14 -32z"/>
<path d="M4830 2230 l0 -2160 395 0 396 0 -6 183 c-3 100 -12 538 -21 972 -13
689 -54 1772 -90 2343 -5 82 -3 102 8 102 10 0 55 -386 206 -1782 107 -981
196 -1791 199 -1800 4 -17 34 -18 444 -18 344 0 439 3 439 13 0 38 390 3581
395 3585 3 3 7 3 10 0 3 -2 -13 -375 -35 -829 -32 -659 -43 -998 -55 -1692 -8
-477 -15 -915 -15 -972 l0 -105 405 0 405 0 0 2160 0 2160 -630 0 c-478 0
-630 -3 -630 -12 0 -6 -38 -417 -85 -912 -74 -786 -92 -1007 -134 -1729 -26
-455 -51 -830 -55 -834 -3 -3 -8 -4 -10 -2 -2 2 -27 380 -55 840 -43 698 -66
984 -136 1730 -47 492 -85 900 -85 907 0 9 -133 12 -630 12 l-630 0 0 -2160z"/>
<path d="M8070 2230 l0 -2160 395 0 395 0 -5 212 c-4 117 -13 566 -20 998 -13
682 -57 1838 -89 2313 -4 57 -2 77 7 77 9 0 65 -487 205 -1782 107 -981 196
-1791 199 -1800 4 -17 34 -18 443 -18 l438 0 6 38 c3 20 92 829 197 1797 105
968 193 1762 195 1764 2 2 6 2 9 -1 3 -2 -13 -375 -35 -829 -33 -692 -42 -974
-55 -1760 -8 -515 -15 -953 -15 -973 l0 -36 405 0 405 0 0 2160 0 2160 -630 0
c-497 0 -630 -3 -630 -12 0 -7 -38 -420 -84 -918 -71 -762 -92 -1029 -131
-1690 -47 -809 -51 -870 -63 -870 -4 0 -31 378 -60 840 -41 645 -71 1038 -132
1692 -43 469 -82 877 -85 906 l-6 52 -630 0 -629 0 0 -2160z"/>
<path d="M11736 4368 c-3 -13 -33 -266 -66 -563 -33 -297 -142 -1253 -240
-2125 -99 -871 -180 -1590 -180 -1597 0 -10 84 -13 405 -13 379 0 405 1 405
18 0 9 16 235 35 502 19 267 35 486 35 488 0 1 86 2 190 2 105 0 190 -1 190
-2 0 -2 16 -221 35 -488 19 -267 35 -493 35 -502 0 -17 26 -18 416 -18 l415 0
-6 43 c-3 23 -89 740 -190 1592 -101 853 -215 1805 -252 2118 l-68 567 -577 0
-578 0 -4 -22z m607 -850 c10 -117 45 -528 77 -913 33 -385 60 -712 60 -727
l0 -28 -165 0 c-191 0 -171 -20 -155 150 13 146 140 1695 140 1714 0 9 6 16
13 16 9 0 17 -55 30 -212z"/>
</g>
</svg>
